<?xml version="1.0" encoding="utf-8"?>
<!-- Generator: Adobe Illustrator 16.0.3, SVG Export Plug-In . SVG Version: 6.00 Build 0)  -->
<!DOCTYPE svg PUBLIC "-//W3C//DTD SVG 1.1//EN" "http://www.w3.org/Graphics/SVG/1.1/DTD/svg11.dtd">
<svg version="1.1" id="Layer_1" xmlns="http://www.w3.org/2000/svg" xmlns:xlink="http://www.w3.org/1999/xlink" x="0px" y="0px"
	 width="1000px" height="250.485px" viewBox="0 0 1000 250.485" enable-background="new 0 0 1000 250.485" xml:space="preserve">
<rect y="0.402" display="none" width="1000" height="250"/>
<g>
	<path fill="#FBDE3B" d="M278.218,67.363c2.906,2.492,5.812,3.53,8.926,3.737c3.321,0.207,6.85-0.622,10.793-2.076
		c3.944-1.452,6.851-4.358,9.341-8.095c2.491-3.736,3.114-6.643,0.416-10.379c-3.944-5.605-9.341-10.587-16.399-8.719
		c-1.661,0.208-3.113,0.83-4.566,1.66c-2.906,1.66-6.02,4.359-8.096,7.059c-2.906,3.736-4.773,10.793-2.075,14.945
		C276.973,66.327,277.596,66.741,278.218,67.363z"/>
	<linearGradient id="SVGID_1_" gradientUnits="userSpaceOnUse" x1="232.2148" y1="133.7207" x2="1000.4932" y2="133.7207">
		<stop  offset="0" style="stop-color:#FBDE3B"/>
		<stop  offset="0.4" style="stop-color:#F7931E"/>
		<stop  offset="0.55" style="stop-color:#F7931E"/>
		<stop  offset="1" style="stop-color:#FBD13B"/>
	</linearGradient>
	<path fill="url(#SVGID_1_)" d="M992.938,141.055c-2.076,3.321-3.114,5.605-4.566,8.926c-1.662,4.567-5.19,9.135-7.681,12.248
		c-0.415,0.83-4.566,4.151-5.604,3.944c-1.038-0.415-0.624-3.944-0.624-4.774c-0.414-9.342-0.622-20.344,0.209-30.308
		c-0.209-2.075,0.207-4.98,0.415-7.057c1.038-8.304,1.868-18.06,1.245-26.363c-0.622-6.021-7.058-10.587-12.247-8.719
		c-3.321,1.245-5.813,4.152-7.888,6.851c-2.7,3.529-8.305,20.135-8.719,20.135c-0.831-0.207-0.624-7.472-0.624-7.888l-0.621-9.134
		c-0.415-4.982-3.945-8.095-9.341-7.473c-3.323,0.416-4.775,1.868-4.982,4.982c-0.415,6.85-1.453,13.699-1.66,20.758
		c-0.262,8.647-0.686,17.27-1.069,25.707c-2.084,4.927-3.637,9.235-7.029,14.771c-0.83,1.246-6.028,7.06-7.688,6.436
		c-1.661-0.415-1.462-2.49-1.462-4.151v-0.83c0-4.982,0.008-9.965,0.216-14.946c0-5.812-0.101-9.757-0.308-15.775
		c-0.621-9.964-0.257-15.568-0.257-27.608c0-2.907-0.233-5.813-0.856-8.512c-0.622-3.528-0.219-7.473-2.087-10.793
		c-0.622-1.246-1.252-2.492-2.912-2.283c-2.076,0.207-4.361,0.415-4.985,2.49c-0.414,1.66-1.247,3.113-1.247,4.774
		c-0.207,5.188-0.001,5.188-0.623,10.587c-0.831,7.265-0.417,12.455-1.662,19.719c-1.868,10.172-1.245,17.645-3.321,27.816
		c-1.245,6.643-3.321,29.477-9.548,20.966c-0.416-0.415-0.416-0.829-0.623-1.246c-1.661-7.473-0.623-15.153-1.038-22.625
		c-0.207-3.528,0-4.983,0-8.512c-0.207-6.019-1.245-10.171-0.831-16.191c0.416-6.227,0.208-6.02-0.83-12.04
		c-0.622-4.15,0.416-8.303-0.829-12.246c-1.246-3.737-3.529-5.813-7.059-5.813c-3.943-0.208-6.435,1.868-7.473,5.813
		c-3.321,13.285-3.113,20.758-2.283,32.383c0.275,5.927,0.367,11.039,0.397,16.474c-4.64,5.975-7.536,7.267-12.438,11.964
		c-1.661,1.454-2.076,0.83-2.906-0.622c-2.491-4.774-5.397-9.134-9.134-13.078c-4.566-4.981-9.964-8.926-15.361-12.661
		c-2.906-2.076-3.944-3.53-2.906-6.852c0.623-1.867,1.661-3.113,3.528-4.15c4.775-2.699,13.701-3.321,18.476-6.229
		c2.699-1.66,1.661-7.888,0.623-9.549c-3.53-5.604-8.097-7.058-14.532-5.396c-0.414,0.208-1.245,0.208-1.659,0.415
		c-8.512,2.283-17.438,10.38-19.305,19.513c-1.159,5.791-0.856,12.813,1.189,18.113c-7.03,4.87-11.034,7.466-13.646,8.872
		c-4.566,2.698-6.85,3.321-11.832,6.02c-0.829,0.623-2.491,1.868-2.698,0c-0.207-2.698-1.038-5.188-0.207-7.472
		c5.397-12.664,10.171-25.325,12.454-38.61c2.283-13.078,4.359-21.382,4.359-30.723c0-7.057-0.831-13.077-5.397-19.306
		c-1.66-2.283-4.359-4.15-7.473-3.527c-3.736,0.829-6.643,3.113-8.51,6.02c-4.152,7.473-7.06,15.359-9.55,23.249
		c-3.735,11.831-4.359,28.231-4.359,40.063c0,4.237,0.039,8.474,0.078,12.71c-3.585,0.555-6.578,0.362-8.591,0.16
		c-1.66-0.208-2.49-2.075-2.49-3.944c0-3.735-0.624-7.057-0.831-10.587c-0.829-7.058-4.981-11.831-10.794-14.738
		c-0.83-0.414-1.246-0.623-2.075-0.414c-3.321,0.414-6.021,2.49-7.266,5.812c-0.622,1.661-0.831,3.736-1.038,5.604
		c-1.452,9.342,2.699,18.89,11.417,22.835c1.037,0.622,1.868,1.038,1.868,2.697c-0.207,1.869,0,3.945-0.415,3.945
		c-1.037,7.265-3.528,14.323-6.85,20.966c-1.038,2.697-2.699,5.188-4.151,7.68c-1.453,2.076-3.321,2.491-4.152,0.83
		c-2.907-4.359-5.397-8.719-5.812-14.323c-1.454-10.793-1.869-21.795-2.076-32.59c0-6.228-0.415-12.454,1.245-18.474
		c1.868-5.813,5.812-8.928,12.454-10.173c1.454-0.207,2.076-1.245,1.869-2.905c-0.831-2.699-4.566-7.059-7.888-7.682
		c-6.229-0.829-14.738,3.322-18.06,8.719c-2.699,4.566-4.982,9.342-6.228,14.531c-2.497,10.558-3.564,20.776-4.205,32.101
		c-2.646,4.26-4.124,7.875-7.006,12.736c-3.528,6.021-9.548,11.626-14.737,12.871c-1.869,0.414-7.267-1.245-8.303-3.53
		c-0.623-1.245-1.038-2.49-2.076-3.528c-2.076-3.943-2.906-8.096-3.53-12.247c-0.207-1.246,0.209-2.284,1.454-3.114
		c4.774-2.698,8.096-6.643,11.417-10.793c2.699-3.53,4.773-7.267,7.473-10.795c3.114-4.152,5.604-8.511,6.227-13.908
		c0.209-3.321-0.622-6.642-1.036-9.964c-0.416-3.943-2.699-6.02-6.021-7.472c-7.681-2.7-14.323,0-19.928,4.358
		c-6.229,4.981-11.833,11.21-14.116,19.305c-3.252,11.313-4.571,22.529-2.92,33.583c-1.015,3.347-1.877,6.712-3.932,10.218
		l-3.113,5.396c-2.492,4.151-3.529,5.813-7.059,9.342c-0.83,0.831-3.529,1.66-4.774,1.245c-1.038-0.414-1.661-1.66-1.868-2.906
		c-0.415-3.113-0.622-4.15-0.622-7.265c0.207-4.359,1.038-8.719,1.038-13.285c0-8.097,1.038-16.399,1.867-24.287l1.661-16.399
		c0.622-5.189,1.66-10.378,1.452-15.775c0-2.699-0.207-5.813-1.867-7.681c-3.113-3.321-8.304-5.604-12.663-6.436
		c-6.228-1.245-13.907,0.415-19.304,3.321c-4.359,2.283-8.926,4.152-11.418,9.342c-2.905,6.02,0.416,16.605,7.059,17.436
		c1.867,0.208,6.434,0,7.888-1.452c3.321-3.321,3.735-7.474,4.151-11.624c0.415-4.151,2.698-8.304,7.265-8.511
		c1.869,0,3.529,0.414,3.945,2.697c1.245,8.097,1.245,16.399,0.414,24.702c-0.207,1.661-1.038,1.661-2.283,0.83
		c-1.661-1.245-3.735-1.452-6.019-1.452c-3.945,0.207-7.474,1.452-10.795,3.528c-8.351,5.314-13.895,12.904-16.851,22.095
		c-4.521,7.18-9.97,13.98-15.123,20.46c-2.283,3.113-5.189,6.435-8.511,8.718c-2.283,1.454-2.283,1.247-2.905-1.453
		c-0.624-2.283-0.416-4.359-0.209-6.643c1.661-13.492,3.737-23.041,9.549-35.496c2.076-4.773,4.774-11.624,1.66-16.399
		c-1.452-1.867-6.643-2.906-10.378-4.566c-4.981-1.867-13.078-2.906-17.021-4.566c-1.661-0.83-1.245-1.038-1.454-2.906
		c-0.207-3.736-0.415-5.396-1.452-9.134c-0.831-2.49-1.869-4.359-2.491-5.812c-1.454-2.699-3.737-4.359-6.228-3.321
		c-6.436,2.49-10.795,7.681-9.341,14.946c0.829,3.527,2.905,6.227,4.981,8.926c0.83,0.829,1.454,1.867,1.454,3.113
		c-0.416,5.189-0.624,10.171-1.038,15.36c-0.623,6.436-2.906,12.871-5.397,19.514c-1.661,3.735-3.321,7.057-6.021,11.416
		c-3.528,6.021-10.586,11.626-15.775,12.871c-1.869,0.414-7.265-1.245-8.303-3.53c-0.623-1.245-1.038-2.49-2.076-3.528
		c-2.076-3.943-2.906-8.096-3.528-12.247c-0.209-1.246,0.207-2.284,1.452-3.114c4.774-2.698,8.096-6.643,11.417-10.793
		c2.699-3.53,4.773-7.267,7.473-10.795c3.114-4.152,5.604-8.511,6.229-13.908c0.207-3.321-0.624-6.642-1.038-9.964
		c-0.416-3.943-2.699-6.02-6.021-7.472c-7.681-2.7-14.323,0-19.928,4.358c-6.227,4.981-11.833,11.21-14.116,19.305
		c-3.408,11.857-4.682,23.609-2.648,35.178c-0.501,1.155-1.058,2.464-1.714,4.055c-3.112,7.681-4.15,9.964-10.171,15.984
		c-1.869,1.869-6.019,2.076-8.303,1.038c-3.114-1.454-3.321-4.566-4.359-7.474c-2.284-6.228-0.831-12.87-2.284-19.305
		c-1.038-4.774-1.247-9.549,0.208-14.531c0.622-2.283,1.869-4.566,2.283-6.85c1.869-10.793,5.397-21.174,8.511-31.552
		c4.15-13.909,7.679-26.57,6.227-41.103c-0.622-6.643-2.491-13.076-8.51-15.152c-0.624-0.207-0.416-1.452-4.982-1.452
		c-4.774,0-12.04-0.208-15.983,7.679c-5.19,10.38-4.982,28.646-5.397,39.855c-0.417,13.078-2.284,26.156-1.662,39.233
		c0.208,3.944,0.208,7.888,0.416,11.833c0.197,3.41,0.358,6.843,0.57,10.276c-0.133,0.261-0.258,0.507-0.367,0.726
		c-3.737,7.472-3.529,8.719-5.397,12.039c-2.49,4.359-2.699,5.813-6.643,10.379c-2.283,2.49-3.528,5.189-9.342,5.812
		c-1.867,0.208-4.358-0.622-5.188-2.49c-0.831-2.076-2.283-4.359-2.491-6.643c-0.416-3.528,0-7.266-0.208-10.795
		c0-8.511-0.622-12.868,0.623-21.38c0.622-4.566,0.622-9.342,1.038-13.908c0.622-6.02,0.831-24.702,0.831-30.93
		c0-2.076,0.415-3.113,2.491-3.736c4.774-1.66,9.548-2.49,13.7-5.397c4.152-2.905,7.888-6.021,8.926-11.623
		c0.623-3.53-2.076-6.643-4.774-5.397c-2.491,1.452-4.567,3.113-7.058,4.98c-3.321,2.492-7.68,3.529-11.417,5.605
		c-1.66,1.037-1.038-6.643-0.83-8.719c0.622-6.02,0.622-7.887,0.622-12.455c0-3.735-0.208-7.473-2.698-9.133
		c-2.492-1.66-3.114-2.492-5.397-2.492c-3.945,0-5.604,0.832-8.304,3.945c-4.151,4.359-6.899,7.68-8.352,13.699
		C367.426,58.646,368,67.363,368,71.932v3.735c-6,1.038-14.481,1.869-16.973,1.869c-2.49,0.207-3.193-0.415-3.193-2.907
		c-0.415-3.735-0.351-6.434-0.973-13.492c-0.623-4.566,1.069-8.303-3.082-11.832c-2.283-1.869-4.55-3.32-6.833-4.981
		c-3.321-2.283-7.05-1.247-8.295,2.698c-2.076,6.228-2.695,10.794-1.865,17.437c0.831,6.021,1.248,7.265,1.663,10.38
		c0.208,1.66,0.001,2.283-1.866,2.283c-3.529,0.208-4.775,0-8.096-0.832c-3.736-1.036-5.604,0.623-6.226,3.945
		c-0.831,3.944-0.416,7.889,3.528,10.172c3.945,2.076,6.228,1.867,10.587,2.491c1.868,0.207,2.491,0.829,2.491,2.49
		c-0.208,8.926-0.831,21.173-0.831,30.099c0,2.073,0.057,4.099,0.097,6.139c-0.628,0.41-1.117,1.104-1.547,1.75
		c-2.283,2.906-3.321,6.435-4.359,9.963c-2.699,9.343-7.265,17.645-11.832,26.156c-0.831,1.245-4.152,2.698-5.813,2.283
		c-1.661-0.207-2.283-1.869-2.491-3.528c-2.076-13.078-0.208-26.57,0.416-39.855c0.415-8.097,2.906-16.192,2.283-24.287
		c-0.208-2.698-0.208-7.681-0.623-10.38c-0.831-9.134-9.341-7.058-15.361-4.152c-3.321,1.661-4.774,5.398-5.813,8.719
		c-2.283,7.475-2.075,15.154-1.661,23.042c0.399,6.585,0.972,13.164,0.833,19.564c-1.755,4.408-2.869,6.462-5.401,12.61
		c-3.114,7.681-4.152,9.964-10.172,15.984c-1.868,1.869-6.02,2.076-8.303,1.038c-3.113-1.454-3.321-4.566-4.359-7.474
		c-2.283-6.228-0.83-12.87-2.283-19.305c-1.038-4.774-1.246-9.549,0.208-14.531c0.623-2.283,1.868-4.566,2.283-6.85
		c1.868-10.793,5.397-21.174,8.511-31.552c4.152-13.909,7.68-26.57,6.227-41.103c-0.623-6.643-2.491-13.076-8.511-15.152
		c-0.623-0.207-0.415-1.452-4.981-1.452c-4.775,0-12.04-0.208-15.984,7.679c-5.189,10.38-4.982,28.646-5.397,39.855
		c-0.415,13.078-2.283,26.156-1.661,39.233c0.208,3.944,0.208,7.888,0.416,11.833c0.623,10.793,0.831,21.795,3.736,32.382
		c1.868,6.643,1.868,13.492,7.266,18.476c4.566,4.359,13.285,6.434,18.474,3.321c3.321-2.076,4.982-4.359,8.096-6.643
		c1.661-1.245,2.076-2.284,3.529-3.945c4.359-4.981,6.851-7.888,8.719-14.115c0.244-0.798,0.467-1.538,0.68-2.253
		c0.369,1.67,0.823,3.324,1.397,4.952l3.114,8.719c2.076,5.188,4.774,9.964,9.964,13.077c2.699,1.867,7.888,1.867,10.586,0
		c3.944-2.906,7.681-6.643,9.341-11.418c2.698-7.057,5.189-14.115,8.51-20.965c1.095-2.273,1.876-4.652,2.536-7.075
		c0.139,7.067-1.574,21.761,0.576,27.626c2.699,7.057,6.228,10.586,12.247,13.285c3.321,1.452,8.511,0.414,11.001-1.453
		c6.435-4.359,13.701-10.587,17.645-17.229c1.038-1.868,2.283-3.528,3.321-5.397c2.699,5.397,6.435,10.172,11.833,13.492
		c4.152,2.492,8.718,4.359,13.492,3.738c8.097-1.038,10.794-1.662,14.947-8.097c3.685-5.615,5.293-8.27,7.082-12.34
		c0.298,1.421,0.631,2.836,1.017,4.244c1.869,6.643,1.869,13.492,7.265,18.476c4.568,4.359,13.285,6.434,18.475,3.321
		c3.321-2.076,4.983-4.359,8.095-6.643c1.662-1.245,2.076-2.284,3.53-3.945c4.079-4.661,6.514-7.541,8.342-12.989
		c0.13,0.316,0.244,0.633,0.379,0.949c3.528,8.305,15.152,13.493,24.909,13.493c3.528,0.208,15.853-0.829,21.25-4.774
		C522.828,165.55,529,158.285,531,146.66v-0.208c0-0.414,0.547-1.038,0.547-1.452c2.076-10.795,5.877-21.382,5.256-31.968
		c0-1.869,0.655-2.699,2.523-2.699c2.283,0,6.659,3.114,9.566,4.567c1.245,1.037,2.29,1.66,2.083,3.529
		c-0.209,1.867-0.411,1.66-0.826,3.321c-1.868,5.604-2.489,5.812-3.942,11.624c-2.698,10.587-3.32,21.173-0.828,31.76
		c1.245,6.229,2.283,11.624,7.265,15.775c1.661,1.246,3.322,2.283,5.398,1.662c2.283-0.624,4.566-1.869,6.228-3.529
		c3.321-3.113,7.058-6.435,9.757-9.965c1.239-1.584,2.546-3.147,3.832-4.732c0.061,3.242,0.207,6.533,1.569,9.715
		c2.285,4.982,4.568,8.926,8.928,13.285c2.904,2.906,7.68,2.906,11.623,2.906c6.85,0,13.285-10.379,15.154-16.605l0.622-0.831
		c0.623,0,0.623,0.415,0.83,0.831l1.661,3.528c2.905,7.265,15.152,8.719,20.136,3.528c3.113-3.114,5.397-6.85,7.681-10.587
		c1.676-2.814,2.958-5.74,4.029-8.724c0.245,0.625,0.48,1.25,0.747,1.873c3.528,8.305,15.152,13.493,24.909,13.493
		c3.528,0.208,8.719-1.245,11.832-4.774c5.783-6.586,9.453-10.45,13.029-16.856c1.868,8.362,6.586,15.575,13.334,21.631
		c5.397,4.982,11.625,7.473,18.89,7.473c4.152,0,8.719-2.905,10.38-6.435c3.321-7.265,4.981-14.738,6.227-22.419
		c0.831-5.812,1.869-9.34,1.869-14.944c0-2.076,0.83-1.454,3.528-1.246c2.879,0,6.03,0.811,8.899,0.552
		c0.215,15.437,0.578,30.843,0.858,46.154c-0.207,4.773,0.207,9.548,1.038,13.907c3.321,11.832,6.643,23.248,17.021,31.345
		c6.435,5.188,14.739,3.943,18.268-3.113c7.888-16.399,11.416-33.629,2.49-51.065c-1.868-3.529-5.397-9.342-7.057-11.417
		c-2.907-3.321-4.775-4.981-8.097-7.472c-2.905-2.076-1.66-2.907,0.207-3.738c3.944-1.867,6.228-1.867,12.456-5.189
		c5.61-2.604,7.751-4.639,13.681-9.632c5.069,5.353,12.499,8.768,16.834,15.029c1.453,2.283,3.112,4.567,3.736,7.266
		c0.414,1.66,0.207,2.49-1.453,3.114c-3.944,1.66-7.888,3.528-11.625,5.188c-6.02,2.284-11.624,10.173-11.624,16.399
		c0,4.774,1.038,9.342,4.981,12.455c3.528,2.905,7.681,4.981,11.209,4.566c6.643-0.208,11.833-0.416,15.984-4.566
		c2.283-2.284,3.736-4.982,4.981-7.681c3.321-8.304,5.813-16.606,5.397-25.532c0-1.037,0.416-2.076,1.245-2.699
		c4.333-3.249,7.43-5.896,10.441-9.176c-0.038,2.555,0.133,5.044,0.979,7.724c2.697,8.095,4.566,17.437,13.906,19.928
		c3.114,0.829,8.305,1.867,10.172,0c2.492-2.076,4.775-4.567,6.228-7.681l2.907-7.266c0.207-0.415,0.414-1.038,0.621-1.038
		c0.416-0.208,0.831,0.416,0.831,0.83c1.66,3.944,4.566,6.643,8.095,8.926c1.869,1.038,3.945,1.453,6.021,0.624
		c2.49-1.038,4.773-2.492,6.85-4.359c3.337-2.836,5.335-6.48,7.391-10.279c0.434,9.815,1.843,17.888,4.236,27.093
		c0.414,1.868,1.659,3.736,3.321,4.774c4.566,2.49,11.209-1.246,11.623-6.227c0.831-6.229,0.416-10.588,1.038-16.607
		c0.624-8.304,0.416-16.605,0.209-24.91c0-3.735,0.207-7.681,1.453-11.416c1.659-4.982,2.49-10.172,4.773-14.946l5.604-11.624
		c0.207-0.831,0.831-1.869,1.245-2.283c1.661-2.907,6.021-3.529,6.021,2.697c0.415,7.681-1.868,15.361-2.906,23.042
		c-1.245,10.171-2.283,23.872-1.453,34.251c0.208,3.736,1.246,6.643,3.529,9.341c4.359,5.189,8.511,5.604,13.492,1.038
		c5.812-5.605,8.304-8.926,12.04-16.398c3.114-6.228,5.812-12.663,7.473-19.098C1001.241,136.695,995.637,136.903,992.938,141.055z
		 M249.985,104.313c0-13.699,1.038-26.363,1.661-40.063c0.208-4.981,1.246-12.87,3.737-17.229c1.038-1.869,3.944,2.906,5.189,4.773
		c2.284,3.322,1.454,7.059,1.246,10.587c-0.416,8.097-2.283,13.7-4.359,21.382c-1.869,7.058-3.529,13.907-5.813,20.757
		c-0.208,0.624-0.416,1.454-1.038,1.247C249.778,105.559,249.985,104.729,249.985,104.313z M370.174,139.188
		c-0.208,3.32-0.415,6.851-0.415,9.963c-2.283,4.359-4.774,8.097-7.473,11.211c-3.943,4.359-7.265,10.378-11.625,14.322
		c-2.491,1.867-4.774,0.415-5.396-2.699c-0.624-2.697-0.831-6.227-0.831-8.926c0-15.153,0.623-30.099,2.283-45.045
		c0.831-6.851,0.831-16.814,1.038-23.664c0.207-2.699,0.415-4.152,3.944-4.359c6.02-0.207,12.039-1.038,17.436-2.283
		C369.759,103.482,370.797,125.902,370.174,139.188z M435.358,104.313c0-13.699,1.038-26.363,1.661-40.063
		c0.208-4.981,1.246-12.87,3.736-17.229c1.038-1.869,3.944,2.906,5.19,4.773c2.283,3.322,1.453,7.059,1.245,10.587
		c-0.416,8.097-2.283,13.7-4.359,21.382c-1.869,7.058-3.528,13.907-5.812,20.757c-0.208,0.624-0.416,1.454-1.038,1.247
		C435.151,105.559,435.358,104.729,435.358,104.313z M480.199,128.394c-1.038-0.416-0.83-4.152-0.83-5.813
		c0.414-7.472,0.207-13.076,4.566-19.098c1.038-1.659,2.49-3.113,4.151-3.735c2.076-1.038,3.321-0.415,3.321,2.283
		c0,2.283,0.208,7.888-0.83,9.964c-1.869,5.812-4.152,9.757-7.888,14.53C482.275,127.355,481.03,128.808,480.199,128.394z
		 M615.547,130.884c-1.038,10.171-1.868,18.89-1.245,29.062c0,0.623-0.831,2.699-1.038,3.113c-2.283,4.152-2.076,5.397-6.85,9.55
		c-0.623,0.622-5.057,1.659-6.094,1.038c-0.832-0.624-1.32-1.662-1.32-2.907v-4.151c0-9.757,1.943-16.399,3.813-25.947
		c0.207-1.661,0.554-3.321,0.969-4.982c0.831-3.943,5.364-7.265,9.517-7.265C615.166,128.394,615.755,129.223,615.547,130.884z
		 M663.086,128.394c-1.038-0.416-0.83-4.152-0.83-5.813c0.414-7.472,0.207-13.076,4.566-19.098c1.038-1.659,2.49-3.113,4.151-3.735
		c2.076-1.038,3.321-0.415,3.321,2.283c0,2.283,0.208,7.888-0.83,9.964c-1.869,5.812-4.152,9.757-7.888,14.53
		C665.162,127.355,663.915,128.808,663.086,128.394z M743.628,125.279c-0.624,0.207-2.907-2.076-3.114-2.49
		c-1.038-1.869-2.698-3.737-2.076-6.229c0-0.207,1.245-2.906,2.283-3.113c1.246-0.208,2.492,2.49,2.699,3.113
		c0.208,1.869,0.415,4.774,0.415,6.643C743.835,124.448,744.042,125.072,743.628,125.279z M780.371,124.656
		c-0.415-0.415-0.415-1.246-0.415-2.076c0.207-2.074,0-3.943-0.207-6.227c0.207-13.078,0.622-30.723,2.697-44.215
		c0.208-1.66,0.415-4.982,2.283-4.982c1.662,0.207,3.114,3.322,3.321,5.813c0.415,1.452,0,2.697,0,3.735
		c-0.621,13.909-3.113,30.514-6.019,43.801c-0.209,1.037-0.209,1.659-0.416,2.49C781.408,123.41,781.616,124.656,780.371,124.656z
		 M786.599,168.456c1.867,3.321,3.528,6.85,4.566,10.379c1.453,4.358,3.321,7.681,4.981,11.832c1.454,3.736,1.454,5.397,2.076,9.341
		c1.868,6.021,0.416,12.663-1.038,19.099c-0.622,2.283-1.66,4.566-3.112,6.643c-2.492,2.905-5.397,2.283-6.643-1.246
		c-2.076-5.189-2.284-11.001-3.53-16.398c-1.66-11.626-1.245-23.665-1.66-35.496c0-1.245,0.207-2.284,0.207-3.53
		c0-0.829,0-2.283,1.245-2.698C785.354,165.966,786.392,167.211,786.599,168.456z M833.304,179.873
		c-2.49,4.774-5.604,8.926-9.757,11.625c-0.207,0.207-0.621,0.207-0.621,0.414c-1.453,0-3.321-3.113-2.698-4.359
		c2.074-4.359,5.396-7.888,9.755-10.171c1.245-0.623,2.907-2.698,3.737-1.868C835.173,176.759,833.72,178.42,833.304,179.873z"/>
</g>
<g>
	<path fill="#FBDE3B" d="M109.235,62.178c0.034,0.336,1.378,0.353-0.574,0.983c-0.772,0.23-1.526,0.437-2.27,0.625
		c-0.732,0.234-1.449,0.468-2.157,0.695c-0.715,0.217-1.421,0.432-2.123,0.644c-0.688,0.249-1.363,0.521-2.047,0.781
		c-0.682,0.271-1.363,0.541-2.049,0.813c-0.669,0.307-1.318,0.667-1.983,1.022c-0.662,0.362-1.325,0.742-1.991,1.148
		c-0.638,0.442-1.264,0.935-1.897,1.444c-0.017,0.234-0.033,0.472-0.05,0.71c-4.096,2.81-7.978,6.398-11.161,10.739
		c-2.747,4.122-4.667,8.752-5.879,13.506c-1.185,4.758-1.686,9.71-1.222,14.542c0.187-0.266,0.363-0.388,0.476,0.56
		c0.235,2.013,0.547,4.512,1.232,7.132c0.079,0.33,0.158,0.666,0.238,1.001c0.107,0.33,0.217,0.662,0.327,0.998
		c0.226,0.668,0.456,1.347,0.688,2.037c0.212,0.696,0.565,1.346,0.855,2.029c0.312,0.674,0.604,1.366,0.956,2.027
		c0.48,0.747,0.96,1.494,1.434,2.229c0.449,0.522,0.699,0.564,0.863,0.583c0.788,1.08,1.493,2.138,2.25,3.075
		c0.788,0.91,1.515,1.806,2.272,2.61c2.681,2.48,5.727,4.518,8.965,6.139c3.254,1.615,6.77,2.645,10.328,3.245l2.691,0.332
		c0.898,0.067,1.804,0.063,2.705,0.088c0.451,0.003,0.9,0.033,1.35,0.009l1.347-0.1c0.905-0.089,1.775-0.098,2.702-0.271
		c3.7-0.528,7.322-1.763,10.557-3.646c6.494-3.739,11.426-10,13.463-17.191c1.03-3.583,1.338-7.381,0.901-11.074
		c-0.376-3.807-1.839-7.555-4.02-10.723c-3.93-5.287-10.003-8.39-15.9-9.065c-2.203-0.286-4.513-0.348-6.989,0.091
		c-2.452,0.43-4.891,1.414-7.008,2.868c-2.123,1.446-3.922,3.352-5.225,5.469c-1.31,2.115-2.114,4.438-2.431,6.657
		c0.264-0.14,0.452,0.085,0.595,0.546c0.19,0.464,0.314,1.161,0.504,1.986c0.103,0.412,0.216,0.856,0.335,1.326
		c0.135,0.471,0.311,0.959,0.471,1.451c0.406,0.971,0.866,1.962,1.489,2.815c1.19,1.742,2.764,2.944,3.879,3.362
		c1.131,0.422,1.658,0.261,1.325-0.586c0.828,0.65,1.868,1.271,3.008,1.636c1.137,0.378,2.343,0.525,3.419,0.481
		c2.169-0.04,3.463-1.033,3.472-1.284c-0.013-0.484,0.088-0.975,0.196-1.602c0.124-0.603,0.284-1.302,0.362-2.105
		c0.025-0.408,0.059-0.82,0.013-1.263c-0.02-0.429-0.104-0.874-0.259-1.319c-0.021-0.108-0.073-0.221-0.122-0.333l-0.062,0.095
		l-0.127,0.256H117v-0.527c0-0.284,0.064,0.378,0.057,0.31l-0.057-0.06v-0.115l0.113-0.23l0.056-0.232
		c-0.001-0.075,0.043-0.191,0.032-0.13c-0.027,0.039-0.002,0.082-0.01,0.124c-0.007,0.013,0.026,0.056,0.011,0.044l-0.038-0.028
		c-0.03-0.021-0.042-0.045-0.068-0.063c-0.125-0.07-0.231-0.134-0.35-0.18c-0.129-0.038-0.251-0.065-0.366-0.076
		c-0.173-0.035-0.295-0.088-0.465-0.118c-0.021-0.02-0.045-0.005-0.068-0.008c-0.012-0.003-0.024-0.006-0.036-0.012l0.017,0.3
		l0.022,0.3l0.061-0.006l-0.033-0.293c1.374-1.189,0.02-0.998,0.164-0.998h-0.009l-0.134,0.063l-0.286,0.023
		c-0.072-0.006-0.27,0.008-0.154-0.001c0.091-0.012,0.204-0.055,0.258-0.09c-0.012-0.038,0.01,0.021,0.03,0.04
		c0.058,0.059-0.005-0.003-0.049-0.01c0.006,0-0.023-0.006,0-0.003c-0.003,0.001-0.004-0.101,0.027-0.098
		c0.026-0.001,0.04-0.103,0.06-0.104c0.176-0.017,0.326-0.029,0.454-0.039c0.259,1.455,0.333,0.747,0.431,0.279
		c0.01-0.061,0.02-0.083,0.033-0.155c-0.276,0.018-0.563,0.094-0.859,0.094h-0.017c-0.027,0-0.05,0.014-0.082,0.014
		c-0.006,0.002-0.032,0.009-0.048,0.003c0.007,0.003-0.009,0.004-0.011,0.004c0.013,0.001,0.058,0.023,0.074,0.032
		c0.005,0.006,0.009,0.008-0.005,0c0.046,0.037-0.019-0.015-0.034-0.052c-0.007-0.012-0.002-0.005,0,0.003
		c0.033-0.022-0.1,0.063-0.155,0.072c-0.062,0.029-0.239,0.037,0.017,0.041l0.52,0.015c-0.072,0.731,0.901-1.713-0.099,1.637v-0.004
		v-0.007v-0.018l-0.027-0.037l-0.044-0.117c0.015-0.106-0.028,0.009-0.057,0.045c-0.032,0.04-0.007-0.009,0.033-0.033
		c0.003-0.003,0.027-0.018,0.016-0.013l0.011-0.008l-0.021,0.008c0.036,0.062-0.036-0.16-0.057-0.294l0.05-0.063l-0.002-0.028
		l-0.065,0.052l-0.04,0.234l-0.032,0.462l-0.01,0.058c0.596,0.324-0.814-0.403-0.67-0.328l-0.003,0.005l-0.005,0.014l-0.006,0.03
		c-0.001,0.019,0,0.038,0.004,0.057c0.014,0.041-0.021,0.071-0.011,0.107c-0.012,0.069-0.018,0.136-0.047,0.196
		c-0.077,0.25-0.279,0.511-0.512,0.65c-0.115,0.07-0.23,0.117-0.367,0.146c-0.04-0.006-0.077-0.002-0.113,0.012
		c-0.051,0.012-0.17-0.004-0.253,0.006c-0.09,0.016-0.179,0.018-0.266-0.001c-0.086-0.017-0.176,0.001-0.261-0.015
		c-0.344-0.043-0.671-0.148-0.999-0.271c-0.322-0.142-0.615-0.349-0.898-0.566c-0.544-0.469-0.938-1.071-1.135-1.739
		c-0.017-0.087-0.04-0.17-0.07-0.253c-0.021-0.088-0.054-0.183-0.075-0.271L110,110.054v-0.2c0-0.134,0.026-0.267,0.012-0.398
		c-0.006-0.267,0.054-0.525,0.048-0.788c0.069-0.253,0.068-0.521,0.146-0.771c0.243-1.009,0.706-1.994,1.387-2.821
		c0.696-0.813,1.567-1.471,2.529-1.906c0.985-0.424,1.975-0.579,3.44-0.561c1.346,0.033,2.672,0.328,3.915,0.867
		c2.493,1.07,4.582,3.168,5.629,5.688c0.104,0.328,0.218,0.648,0.346,0.968c0.083,0.331,0.156,0.668,0.253,0.998
		c0.067,0.341,0.09,0.689,0.156,1.032c0.058,0.345,0.03,0.785,0.061,1.174c0.031,1.6-0.107,3.208-0.599,4.735
		c-0.213,1.059-0.708,2.936-2.156,5.033c-0.181,0.259-0.369,0.528-0.562,0.804c-0.211,0.262-0.45,0.514-0.678,0.785
		c-0.115,0.136-0.23,0.274-0.349,0.412c-0.132,0.125-0.267,0.251-0.402,0.379c-0.277,0.249-0.537,0.532-0.836,0.781
		c-1.197,1.004-2.652,1.894-4.319,2.579c-0.429,0.138-0.838,0.356-1.294,0.46c-0.451,0.12-0.907,0.241-1.371,0.363
		c-0.479,0.063-0.959,0.141-1.448,0.226c-0.508,0.063-1.079,0.055-1.624,0.097c-2.204,0.069-4.528-0.095-6.798-0.79
		c-2.275-0.653-4.526-1.678-6.593-3.077c-2.078-1.389-3.896-3.223-5.404-5.277c-1.501-2.063-2.653-4.387-3.395-6.834
		c-0.146-0.622-0.303-1.242-0.467-1.86c-0.113-0.629-0.18-1.269-0.284-1.898l-0.074-0.473c-0.017-0.162-0.014-0.338-0.021-0.505
		l-0.039-1.014l-0.046-1.015c-0.02-0.337-0.042-0.673-0.003-1.005c0.184-5.35,1.667-10.488,4.218-14.58
		c2.479-4.132,5.712-7.3,8.852-9.411c3.146-2.139,6.16-3.217,8.362-3.92c0.548-0.14,1.091-0.279,1.636-0.419
		c1.219-0.359,2.531-0.453,3.842-0.653l0.495-0.072l0.523-0.019l1.057-0.033c0.708-0.031,1.417-0.062,2.132-0.094
		c1.425,0.015,2.857,0.157,4.295,0.197c1.414,0.249,2.847,0.397,4.244,0.673c5.593,1.153,10.697,3.47,14.64,5.856
		c3.74,2.034,7.214,4.814,10.261,8.066c-0.897-1.903-2.028-3.482-2.919-4.972c3.261,3.308,5.554,7.327,6.75,8.688
		c0.182,0.251,0.355,0.491,0.519,0.722c0.143,0.239,0.277,0.468,0.405,0.684c0.26,0.431,0.497,0.813,0.713,1.15
		c0.433,0.669,0.783,1.151,1.062,1.479c0.531,0.662,0.75,0.7,0.886,0.29c0.155-0.416,0.025-1.201-0.107-2.186
		c-0.161-0.971-0.318-2.149-0.534-3.19c-0.503-1.395-0.064-1.362,0.277-1.494c0.337-0.139,0.578-0.445-0.406-2.656
		c0.867,1.493,1.544,2.599,2.165,3.734c0.542,1.178,1.085,2.356,1.81,3.929c0.321,0.087-0.836-2.334-1.95-4.476
		c-1.257-2.063-2.357-3.937-1.367-3.137c0.389,0.75,0.816,1.502,1.268,2.256c0.22,0.381,0.47,0.75,0.681,1.145
		c0.2,0.398,0.401,0.797,0.604,1.2c0.409,0.804,0.818,1.609,1.225,2.41c0.217,0.397,0.374,0.819,0.524,1.236
		c0.15,0.419,0.3,0.832,0.447,1.245c0.061-0.342-0.108-1.258-0.493-2.391c-0.441-1.11-1.038-2.461-1.617-3.762
		c-1.318-2.516-2.667-4.778-2.213-4.756c0.282,0.392,0.696,1.162,1.169,2.092c0.452,0.943,1.065,1.99,1.451,3.107
		c0.431,1.096,0.861,2.138,1.255,2.928c0.204,0.389,0.378,0.725,0.515,0.986c0.148,0.254,0.291,0.413,0.424,0.453
		c0.053,0.017,0.02-0.183-0.069-0.518c-0.047-0.167-0.099-0.372-0.178-0.592c-0.092-0.218-0.193-0.457-0.301-0.711
		c-0.439-1.01-1.003-2.233-1.38-3.045c0.63,1.23,1.225,2.393,1.773,3.468c0.505,1.094,0.896,2.132,1.3,3.038
		c0.848,1.805,1.287,3.238,1.677,3.997c0.379,0.768,0.621,0.886,0.672,0.16c0.026-0.362,0.004-0.938-0.077-1.749
		c-0.043-0.822-0.284-1.842-0.611-3.118c0.144,0.432,0.295,0.887,0.453,1.36c0.073,0.236,0.157,0.475,0.225,0.723
		c0.055,0.253,0.108,0.507,0.164,0.768c0.211,1.032,0.434,2.114,0.656,3.204c0.266,1.077,0.329,2.197,0.473,3.261
		c0.131,1.068,0.272,2.097,0.432,3.042c0.005-0.004,0.006-0.02,0.01-0.03c-0.098-0.951-0.234-2.248-0.367-3.526
		c-0.071-0.642-0.115-1.282-0.211-1.864c-0.125-0.576-0.24-1.104-0.335-1.539l0.374,1.595c0.093,0.54,0.153,1.083,0.231,1.624
		l0.427,3.248c0.08-0.354,0.15-0.753,0.217-1.178c-0.058-0.82-0.123-1.643-0.204-2.475c-0.042-0.416-0.081-0.837-0.136-1.257
		c-0.092-0.411-0.185-0.827-0.278-1.247c0.396,1.414,0.492,2.884,0.711,4.335c0.069-0.563,0.129-1.169,0.179-1.817
		c0.041-0.645,0.118-1.34,0.056-2.045c-0.164-1.332-0.325-2.654-0.48-3.928c-0.057-0.65-0.192-1.266-0.326-1.87
		c-0.132-0.609-0.261-1.204-0.385-1.776c-0.44-2.327-1.181-4.246-1.796-5.589c-2.525-5.401-5.938-10.404-10.075-14.752
		c-4.176-4.311-9.083-7.913-14.439-10.67c-5.359-2.73-11.179-4.704-17.187-5.468l-1.119-0.18l-1.129-0.086l-2.263-0.16
		c-0.753-0.045-1.508-0.111-2.261-0.13l-2.262,0.065l-2.262,0.08c-0.378,0.021-0.748,0.016-1.132,0.059l-1.165,0.15l-2.326,0.321
		c-0.386,0.06-0.776,0.101-1.159,0.181L109.235,62.178z"/>
	<path fill="#FBDE3B" d="M134.221,78.738c0.157-0.298-0.486-0.917,0.765-0.579c1.911,0.688,3.492,1.673,4.919,2.813
		c1.447,1.115,2.804,2.29,4.433,3.443c0.186-0.074,0.377-0.154,0.567-0.231c2.271,2.169,4.263,4.762,5.979,7.546
		c1.811,2.403,3.323,5.025,4.542,7.776c1.221,2.748,2.16,5.632,2.734,8.59c0.171-0.187,0.336-0.295,0.502,0.294
		c0.548,2.482,0.652,6.033,0.251,9.631c-0.012,0.535-0.021,1.073-0.076,1.599c0.061,0.422,0.234,0.558,0.34,0.64
		c-0.24,1.641-0.616,3.068-0.999,4.379c-1.763,8.805-6.519,17.391-13.992,23.576c-7.397,6.239-17.5,10.106-28.299,9.849
		c-2.288,0.079-4.603-0.041-6.877-0.385c-2.275-0.335-4.526-0.854-6.648-1.628c-3.134-1.172-6.513-3.027-9.503-5.342
		c-3.015-2.286-5.659-4.975-7.691-7.5c-0.202,0.494-1.046,0.154-2.171-0.661c-1.105-0.825-2.484-2.131-3.713-3.5
		c-2.486-2.706-4.489-5.636-4.657-3.656c-0.995-2.176-2.016-4.985-2.725-7.322c-0.694-2.338-1.145-4.181-1.457-4.313
		c-0.459-0.197-0.93-0.565-1.46-1.215c-0.261-0.325-0.541-0.72-0.814-1.205c-0.261-0.485-0.528-1.061-0.801-1.736
		c-1.021-2.699-2.103-7.162-1.448-14.16c0.317-2.726,1.313-6.077,2.429-8.879c0.262-0.709,0.549-1.374,0.83-1.995
		c0.278-0.619,0.513-1.208,0.758-1.72c0.49-1.025,0.846-1.83,0.976-2.303c0.179-0.648,0.033-0.659-0.277-0.351
		c-0.31,0.313-0.828,1.097-1.331,1.838c-1.001,1.509-1.902,3.117-1.573,1.569c-4.105,9.602-5.316,20.377-3.529,30.556
		c1.746,10.192,6.39,19.808,13.256,27.503c1.694,1.94,3.581,3.707,5.525,5.397c1.976,1.652,4.049,3.191,6.226,4.567
		c2.187,1.356,4.434,2.616,6.787,3.66c2.334,1.082,4.762,1.975,7.236,2.717c9.908,2.991,20.709,3.112,30.817,0.338
		c1.686-0.587,4.612-1.524,8.242-3.279c3.614-1.761,7.981-4.279,12.289-7.97c2.154-1.839,4.313-3.934,6.34-6.317
		c2.021-2.389,3.927-5.042,5.616-7.927c3.381-5.749,5.909-12.459,6.995-19.526c1.11-7.056,0.781-14.388-0.843-21.173
		c-1.6-6.801-4.488-13.034-8.001-18.209c-1.754-2.591-3.656-4.925-5.596-7.001c-1.962-2.056-3.96-3.841-5.89-5.392
		c-3.898-3.061-7.529-5.099-10.247-6.448c-0.676-0.299-1.337-0.62-2.021-0.894c-6.064-2.701-13.417-4.353-20.524-4.335
		c-7.117-0.04-13.872,1.573-18.964,3.768c-4.65,2.106-8.972,4.984-12.729,8.331c2.075-1.1,4.061-1.958,5.823-2.562
		c-4.44,2.334-8.366,5.539-9.531,7.092c-1.831,1.93-2.748,3.271-3.155,4.053c-0.408,0.783-0.302,1.019,0.11,0.938
		c0.416-0.079,1.129-0.483,1.97-0.963c0.875-0.451,1.821-1.035,2.769-1.421c1.214-0.716,1.266-0.276,1.472,0.024
		c0.207,0.31,0.535,0.443,2.328-0.629c-2.332,1.858-3.43,2.888-5.483,5.073c0.043,0.153,0.438-0.206,0.993-0.8
		c0.592-0.555,1.319-1.376,2.09-2.075c0.756-0.714,1.497-1.365,2.005-1.687c0.498-0.335,0.727-0.374,0.468,0.123
		c-2.352,1.631-4.408,4.117-6.292,6.366c0.588-0.181,2.302-2.039,4.04-3.611c1.754-1.555,3.505-2.815,3.542-2.398
		c-0.275,0.276-0.841,0.688-1.539,1.168c-0.667,0.511-1.486,1.077-2.218,1.694c-1.49,1.215-2.705,2.553-2.56,3.044
		c0.06,0.192,2-1.93,3.061-2.899c-3.095,3.178-4.837,6.166-5.255,7.433c-0.205,0.642-0.098,0.856,0.377,0.546
		c0.465-0.317,1.325-1.145,2.714-2.492c-1.712,2.029-4.12,5.025-5.255,7.664c0.005,0,0.015-0.008,0.022-0.014
		c0.677-1.254,2.021-3.299,2.782-4.356c-0.905,1.323-1.709,2.721-2.463,4.142c0.232-0.166,0.476-0.359,0.726-0.568
		c0.32-0.504,0.647-1.004,0.998-1.496c0.349-0.489,0.651-1.018,1.015-1.519c-0.308,0.426-0.563,0.888-0.841,1.336
		c-0.272,0.45-0.562,0.891-0.801,1.366c0.613-0.566,1.354-1.177,2.065-1.882c2.475-2.817,5.386-4.804,6.76-6.117
		c5.624-5.316,12.812-8.902,20.362-10.258C119.372,74.907,127.222,75.781,134.221,78.738z"/>
	<path fill="#FBDE3B" d="M178.869,69.926c-0.033-0.332-0.38-0.625,0.071-0.838c1.444-0.51,2.783,0.445,4.228-0.064l0.036-0.55
		c0.59,0.05,1.195,0.099,1.808,0.149l0.231,0.021c0.068,0.009,0.186,0.013,0.161,0.031l0.033,0.098
		c0.019,0.066,0.031,0.13,0.036,0.194c0.058-0.086,0.176-0.23,0.479-0.455c0.157-0.217,0.299-0.417,0.386-0.504
		c0.244-0.177,0.24,0.015,0.303,0.063l0.188-0.118c0.235-0.198,0.446-0.377,0.593-0.503c0.077,0.008,0.094,0.059,0.081,0.117
		c0.389-0.206,0.832-0.428,1.364-0.661c1.194-0.17,1.671,1.132,0.766,4.805c-0.335,1.576-0.672,3.154-1.214,4.548
		c-0.917,2.001-2.619,4.244-3.741,6.063c1.815,0.668,0.02,5.646,2.21,5.708c-0.749,1.211-1.872,3.031-1.46,3.396
		c1.235,1.096,2.303,2.976,1.255,6.736c-0.542,1.396-2.268,3.023-2.245,3.638c0.038,0.971,1.946-1.09,1.984-0.119
		c3.002-4.616,5.675-9.306,8.29-14.037c1.302-2.368,2.605-4.74,3.916-7.126l0.99-1.789c0.471-0.838,0.944-1.676,1.417-2.516
		c1.346-2.348,2.699-4.705,4.058-7.077c1.121-2.622,5.598-10.904,10.823-20.294c-8.397,1.227-17.388,2.479-25.217,3.521
		c-1.957,0.255-3.844,0.504-5.63,0.737c-1.238,0.153-2.405,0.299-3.481,0.433c-1.673,0.194-3.064,0.339-4.039,0.409l-0.584,0.101
		c-3.546,0.358-7.816,1.065-10.711,2.176c-1.313,0.623-2.635,1.349-3.954,2.053c0.685,0.226,1.324,0.459,1.883,0.7
		c-1.418,0.144-2.836,0.286-3.334,0.7c-2.902,1.202-1.074,1.925,0.251,3.06c0.906,0.453-0.105,1.466,1.272,1.867
		c-0.942,0.097-1.415,0.143-2.362,0.24c-0.038,0.549,2.864-0.652,2.325,0.309c-0.932-0.085-1.904,0.376-2.848,0.471
		c0.42,0.686,3.294-0.152,3.243,0.578c-0.486,0.232-2.771-0.626-2.836,0.288c-0.013,0.184,0.932,0.088,1.405,0.039
		c-2.861,0.652-4.347,1.712-1.574,2.338c-0.922,0.094-2.27-0.115-3.224,0.134c0,0.005,0.006,0.011,0.008,0.015
		c0.489-0.033,1.348,0.042,1.798-0.004l-1.66,0.168c0.103,0.114,0.218,0.227,0.337,0.333c0.426,0.058,0.852,0.092,1.283,0.047
		l-1.102,0.114c0.313,0.253,0.665,0.492,1.044,0.711c1.379,0.401,2.74,1.081,3.446,1.008
		C167.407,71.063,173.169,70.612,178.869,69.926z"/>
	<path fill="#FBDE3B" d="M44.204,107.862c-0.146-0.298,0-0.729-0.499-0.675c-1.501,0.32-2.148,1.835-3.651,2.156l-0.317-0.447
		c-0.479,0.348-0.971,0.708-1.47,1.072c-0.109,0.086-0.278,0.198-0.343,0.265l0.022,0.1c0.019,0.067,0.042,0.13,0.07,0.187
		c-0.093-0.043-0.269-0.106-0.644-0.137c-0.249-0.106-0.475-0.204-0.592-0.23c-0.302-0.022-0.2,0.139-0.228,0.212l-0.221-0.003
		c-0.307-0.047-0.58-0.089-0.77-0.119c-0.062,0.046-0.05,0.098-0.008,0.144c-0.438,0.023-0.931,0.069-1.504,0.146
		c-0.559,0.239-0.761,0.701-0.486,1.438c0.136,0.369,0.389,0.805,0.774,1.311c0.192,0.256,0.416,0.527,0.674,0.818l0.414,0.447
		l0.226,0.235c0.091,0.091,0.113,0.14,0.303,0.279c1.114,1.172,2.23,2.345,3.425,3.25c1.83,1.232,4.462,2.262,6.373,3.229
		c-1.199,1.519,2.943,4.833,1.107,6.026c1.273,0.647,3.187,1.615,3.026,2.143c-0.481,1.577-0.405,3.741,2.46,6.407
		c1.195,0.909,3.522,1.399,3.825,1.937c0.477,0.849-2.234,0.084-1.758,0.932c-4.984-2.375-9.726-4.988-14.441-7.666
		c-2.354-1.345-4.71-2.692-7.082-4.046l-1.784-1.014c-0.823-0.457-1.648-0.917-2.475-1.379c-2.381-1.304-4.772-2.611-7.176-3.927
		c-2.336-1.659-10.514-6.404-19.91-11.703c7.822-3.349,16.166-6.982,23.402-10.191c1.808-0.804,3.55-1.579,5.2-2.318
		c1.125-0.508,2.189-0.99,3.167-1.433c1.533-0.708,2.796-1.315,3.667-1.765l0.554-0.22c3.222-1.548,7.243-3.181,10.3-3.749
		c1.45-0.154,2.961-0.229,4.456-0.321c-0.468,0.555-0.892,1.087-1.245,1.584c1.289-0.621,2.577-1.238,3.218-1.147
		c3.111-0.494,1.925,1.079,1.383,2.739c-0.538,0.859,0.856,1.195-0.113,2.259c0.857-0.411,1.286-0.617,2.147-1.03
		c0.32,0.447-2.792,0.939-1.828,1.479c0.753-0.561,1.825-0.677,2.683-1.089c-0.003,0.804-2.899,1.594-2.473,2.191
		c0.537-0.057,2.043-1.987,2.577-1.239c0.106,0.15-0.753,0.561-1.182,0.769c2.79-0.94,4.683-0.813,2.639,1.17
		C60.937,96.533,61,95.649,63,95.365c0,0.004,0,0.01,0,0.014c0,0.228-1.202,0.743-1.611,0.938l1.472-0.727
		c-0.028,0.152-0.087,0.307-0.132,0.465c-0.335,0.27-0.689,0.52-1.083,0.707l0.997-0.479c-0.133,0.382-0.311,0.769-0.523,1.151
		c-0.969,1.067-1.78,2.358-2.423,2.668C54.607,102.837,49.44,105.465,44.204,107.862z"/>
	<path fill="#FBDE3B" d="M95.382,42.964c-0.326-0.071-0.71,0.167-0.773-0.328c-0.039-1.528,1.282-2.507,1.242-4.038l-0.509-0.203
		c0.228-0.546,0.458-1.561,0.695-2.131c0.058-0.13,0.14,0.139,0.173-0.861h0.104c0.069,0,0.14,0.47,0.202,0.479
		c-0.065-0.076-0.163-0.005-0.282-0.358c-0.16-0.221-0.306-0.301-0.36-0.407c-0.093-0.287,0.089-0.169,0.154-0.214l-0.055-0.185
		c-0.119-0.286-0.223-0.524-0.297-0.701c0.032-0.073,0.084-0.066,0.138-0.036c-0.079-0.44-0.152-0.938-0.212-1.529
		c0.199-1.194,1.61-1.209,4.762,0.727c1.396,0.805,2.792,1.613,3.95,2.561c1.619,1.487,3.226,3.797,4.608,5.425
		c1.197-1.519,5.371,1.725,6.108-0.337c0.92,1.084,2.303,2.714,2.778,2.436c1.422-0.836,3.541-1.271,6.793,0.886
		c1.159,0.946,2.173,3.088,2.764,3.257c0.936,0.264-0.435-2.186,0.499-1.924c-3.459-4.278-7.09-8.265-10.78-12.214
		c-1.85-1.97-3.702-3.938-5.565-5.923l-1.395-1.491c-0.666-0.726-1.332-1.451-2-2.177c-1.817-2.006-3.64-4.019-5.473-6.043
		c-2.136-1.867-8.587-8.636-15.865-16.465c-1.429,8.373-3.019,17.332-4.452,25.116c-0.361,1.946-0.71,3.822-1.04,5.598
		c-0.235,1.218-0.456,2.366-0.661,3.425c-0.332,1.654-0.627,3.024-0.86,3.978l-0.085,0.588c-0.753,3.478-1.401,7.757-1.238,10.851
		c0.188,1.44,0.467,2.922,0.728,4.393c0.428-0.582,0.848-1.116,1.247-1.575c-0.301,1.395-0.602,2.785-0.362,3.388
		c0.247,3.131,1.498,1.616,2.987,0.706c0.712-0.723,1.361,0.554,2.17-0.632c-0.2,0.925-0.3,1.39-0.501,2.318
		c0.511,0.205,0.263-2.923,1.011-2.113c-0.369,0.86-0.231,1.923-0.432,2.852c0.779-0.188,0.872-3.179,1.553-2.904
		c0.069,0.531-1.452,2.439-0.603,2.785c0.17,0.068,0.371-0.859,0.471-1.325c-0.263,2.923,0.282,4.39,1.734,1.948
		c-0.196,0.908-0.856,1.84-0.87,2.84c0.006,0,0.01,0,0.016,0c0.16,0,0.458-1.002,0.553-1.443l-0.35,1.763
		c0.14-0.063,0.28-0.072,0.421-0.151c0.185-0.389,0.349-0.747,0.441-1.17l-0.235,1.1c0.338-0.218,0.675-0.473,0.999-0.767
		c0.811-1.185,1.877-2.266,2.027-2.96C92.925,54.206,94.276,48.595,95.382,42.964z"/>
	<path fill="#FBDE3B" d="M175.061,162.405c-0.059,0.328-0.429,0.593,0.006,0.842c1.404,0.624,2.818-0.225,4.223,0.4l-0.006,0.544
		c0.593-0.002,1.201-0.002,1.819-0.011l0.465-0.006c0.114-0.002,0.048-0.019,0.077-0.03l0.021-0.043
		c0.025-0.065,0.042-0.129,0.054-0.189c0.048,0.091,0.154,0.244,0.437,0.488c0.138,0.232,0.259,0.443,0.339,0.536
		c0.228,0.194,0.244,0.003,0.31-0.039l0.176,0.132c0.219,0.219,0.412,0.414,0.547,0.549c0.079-0.003,0.1-0.051,0.093-0.111
		c0.378,0.244,0.816,0.504,1.343,0.788c1.171,0.258,1.735-1.018,1.129-4.728c-0.212-1.604-0.426-3.206-0.859-4.644
		c-0.759-2.073-2.283-4.454-3.259-6.361c1.861-0.521,0.457-5.64,2.645-5.525c-0.65-1.272-1.63-3.182-1.19-3.515
		c1.316-0.994,2.527-2.787,1.774-6.632c-0.433-1.438-2.027-3.202-1.957-3.817c0.114-0.966,1.856,1.25,1.97,0.281
		c2.637,4.855,4.938,9.757,7.181,14.696c1.114,2.473,2.229,4.948,3.352,7.438l0.847,1.867c0.41,0.881,0.818,1.761,1.228,2.645
		c1.161,2.456,2.326,4.921,3.498,7.4c0.91,2.696,4.705,11.271,9.161,21.02c-8.318-1.895-17.241-3.868-25.019-5.533
		c-1.944-0.412-3.819-0.813-5.594-1.189c-1.197-0.243-2.327-0.476-3.366-0.689c-1.665-0.33-3.05-0.585-4.022-0.733l-0.577-0.147
		c-3.517-0.64-7.732-1.684-10.541-3.022c-1.264-0.727-2.531-1.554-3.795-2.358c0.704-0.172,1.361-0.355,1.938-0.548
		c-1.407-0.257-2.813-0.515-3.279-0.965c-2.808-1.43-0.923-2.004,0.492-3.032c0.942-0.377,0.009-1.467,1.419-1.761
		c-0.937-0.17-1.404-0.256-2.344-0.425c0.005-0.553,2.812,0.877,2.349-0.123c-0.938,0.01-1.874-0.525-2.811-0.695
		c0.475-0.649,3.283,0.414,3.29-0.318c-0.468-0.271-2.82,0.401-2.814-0.514c0.003-0.185,0.94-0.012,1.409,0.073
		c-2.81-0.879-4.212-2.054-1.391-2.456c-0.915-0.167-2.278-0.068-3.214-0.394l0.01-0.011c0.486,0.07,1.353,0.065,1.798,0.147
		l-1.647-0.299c0.111-0.106,0.235-0.209,0.363-0.309c0.431-0.021,0.858-0.021,1.287,0.058l-1.093-0.201
		c0.331-0.228,0.702-0.439,1.1-0.627c1.411-0.29,2.825-0.859,3.527-0.732C163.688,160.358,169.414,161.267,175.061,162.405z"/>
	<path fill="#FBDE3B" d="M95.684,184.773c0.222,0.249,0.674,0.279,0.434,0.72c-0.875,1.266-2.522,1.284-3.397,2.551l0.292,0.468
		c-0.508,0.309-1.028,0.623-1.556,0.946l-0.4,0.237c-0.096,0.046-0.076-0.021-0.12-0.025c-0.053-0.041-0.102-0.088-0.145-0.135
		c0.005,0.104-0.006,0.288-0.118,0.646c0.003,0.271,0.008,0.514-0.012,0.634c-0.093,0.286-0.205,0.131-0.285,0.131l-0.081,0.205
		c-0.072,0.3-0.137,0.566-0.181,0.752c-0.068,0.04-0.112,0.012-0.137-0.046c-0.194,0.401-0.429,0.847-0.726,1.357
		c-0.432,0.419-0.937,0.426-1.511-0.11c-0.287-0.27-0.59-0.67-0.913-1.22c-0.16-0.273-0.325-0.586-0.494-0.936l-0.256-0.552
		l-0.13-0.298c-0.046-0.126-0.082-0.148-0.139-0.38c-0.655-1.481-1.312-2.963-1.693-4.419c-0.437-2.166-0.38-4.994-0.542-7.136
		c-1.861,0.526-3.337-4.578-5.144-3.339c-0.108-1.427-0.271-3.569-0.819-3.622c-1.642-0.161-3.612-1.06-4.978-4.738
		c-0.381-1.454,0.056-3.796-0.324-4.283c-0.603-0.767-0.933,2.036-1.533,1.271c0.287,5.523,0.883,10.912,1.552,16.307
		c0.341,2.696,0.683,5.392,1.026,8.106l0.253,2.037c0.108,0.946,0.219,1.892,0.328,2.839c0.293,2.702,0.586,5.419,0.882,8.149
		c0.634,2.789,1.881,12.133,3.176,22.825c6.107-5.963,12.687-12.304,18.448-17.785c1.442-1.365,2.834-2.684,4.15-3.932
		c0.892-0.835,1.733-1.621,2.509-2.346c1.247-1.151,2.295-2.092,3.046-2.724l0.416-0.428c2.67-2.387,5.726-5.483,7.423-8.095
		c0.701-1.278,1.351-2.647,2.009-3.998c-0.689,0.223-1.346,0.41-1.941,0.547c1.068-0.953,2.135-1.909,2.297-2.538
		c1.652-2.688-0.257-2.192-2.002-2.328c-1.003,0.17-0.773-1.248-2.131-0.76c0.71-0.634,1.066-0.952,1.779-1.59
		c-0.292-0.468-1.943,2.22-2.07,1.125c0.808-0.484,1.327-1.43,2.038-2.066c-0.744-0.303-2.587,2.073-2.975,1.45
		c0.259-0.476,2.619-1.131,2.135-1.909c-0.098-0.157-0.809,0.479-1.165,0.799c1.941-2.22,2.526-3.955-0.093-2.822
		c0.694-0.62,1.91-1.249,2.54-2.017l-0.015-0.006c-0.377,0.318-1.12,0.765-1.458,1.068l1.249-1.118
		c-0.151-0.032-0.309-0.054-0.47-0.072c-0.379,0.207-0.745,0.432-1.069,0.723l0.83-0.743c-0.404-0.022-0.83-0.007-1.266,0.042
		c-1.358,0.486-2.863,0.743-3.396,1.218C104.328,177.075,99.912,180.846,95.684,184.773z"/>
</g>
<g>
	<path fill="#FCF3EA" d="M152.421,226.118c0-1.656-0.267-11.382-0.374-13.894c0-0.534-0.321-5.236-0.374-5.824v-0.214
		c0-1.229,1.389-1.55,2.458-1.55c7.374,0,9.993,5.29,9.993,11.436c0,4.916-1.871,7.908-5.291,10.367
		c6.146,2.725,7.642,11.435,7.642,17.42c0,0.962-0.588,1.336-1.55,1.336c-0.641,0-0.908,0-1.175-0.855
		c-0.267-4.008-1.283-15.336-7.481-15.336c-0.054,0-0.428,0.054-0.535,0.054c-0.588,6.038-0.107,12.13-0.481,18.222
		c-0.694,0.962-2.191,1.015-2.832,0C152.474,244.073,152.474,229.324,152.421,226.118z M155.36,224.836
		c3.794-0.748,5.878-4.916,5.878-8.282c0-2.833-1.175-8.711-5.023-8.711c-0.214,0-1.87,0-1.87,0.428L155.36,224.836z"/>
	<path fill="#FCF3EA" d="M174.813,237.874l-0.321,0.321l-0.908,6.038c-0.107,0.802-0.054,3.1-1.604,3.1
		c-0.694,0-1.175-1.39-1.175-1.924c5.557-38.741,5.611-38.849,5.611-38.849c0.267-1.016,0.641-2.512,1.977-2.512
		c0.588,0,1.336,0.268,1.657,0.802l0.427,1.122c3.099,12.237,4.542,24.795,5.985,37.405l0.321,3.474
		c0,0.054-0.054,0.054-0.054,0.107c-0.374,1.015-0.588,1.442-1.603,1.442h-0.16c-0.321,0-0.855,0-0.909-0.374l-1.336-10.153H174.813
		z M175.614,234.562l6.68,0.16l-3.58-24.955L175.614,234.562z"/>
	<path fill="#FCF3EA" d="M192.128,210.515c0-0.962,0.908-1.87,1.87-1.87h8.443c0.321,0,1.39,0.802,1.443,1.069
		c0.054,0.106,0.054,0.16,0.054,0.267c0,1.068-1.443,1.55-2.298,1.55h-6.413l0.267,17.741l5.771-0.855h0.267
		c2.511,0,1.55,2.458-0.588,2.778l-5.344,0.802l-0.16,13.947c0.481,0.054,2.298,0.054,2.779,0.054c3.58,0,6.198-1.229,6.359,1.229
		c0.107,1.817-11.863,1.604-11.863,0.588L192.128,210.515z"/>
	<path fill="#FCF3EA" d="M226.598,222.164c0.213-8.604,0.908-14.802,2.298-14.802c0.053,0,0.16,0,0.213,0.054
		c0.267,0.267,1.497,0.427,1.817,1.763c0.962,3.901,2.405,11.008,5.558,15.497c0.374-0.321,2.404-3.848,3.473-5.771l0.267-0.428
		c1.977-3.58,3.313-6.145,4.596-9.618c0.32-0.642,0.748-0.962,1.55-0.962c0.748,0.054,1.122,0.268,1.816,0.802
		c-0.374,11.862-0.16,23.779-0.427,35.642l-0.053,2.565c-0.268,0.641-0.855,1.282-1.71,1.282c-0.428,0-0.962-0.428-1.229-0.748
		l0.054-3.152c0.214-9.673-0.214-19.345,0.16-29.017c-1.282,2.298-2.565,4.596-3.687,7c-0.481,0.802-2.672,5.184-3.153,6.253
		c-0.32,0.694-1.763,2.351-2.565,0.534c-5.344-12.13-5.504-12.13-5.557-12.13c-1.176,9.672-1.283,19.558-1.39,29.336
		c-0.107,0.588-0.641,1.016-1.122,1.016c-0.32,0-1.282-0.374-1.496-0.748L226.598,222.164z"/>
	<path fill="#FCF3EA" d="M253.533,210.515c0-0.962,0.908-1.87,1.87-1.87h8.443c0.321,0,1.39,0.802,1.443,1.069
		c0.054,0.106,0.054,0.16,0.054,0.267c0,1.068-1.443,1.55-2.298,1.55h-6.413l0.267,17.741l5.771-0.855h0.267
		c2.511,0,1.55,2.458-0.588,2.778l-5.344,0.802l-0.16,13.947c0.481,0.054,2.298,0.054,2.779,0.054c3.58,0,6.199-1.229,6.359,1.229
		c0.107,1.817-11.863,1.604-11.863,0.588L253.533,210.515z"/>
	<path fill="#FCF3EA" d="M272.771,248.989c-0.053,0-0.694-27.573-0.694-31.207c0-1.016-0.642-9.191-0.695-10.206v-0.374
		c0-0.428,0-0.588,0.374-0.962c0.16-0.054,0.801-0.107,1.015-0.107c0.962,0,1.39-0.053,1.71,1.122
		c0.481,2.085,0.267,3.367,0.321,5.451c0.267,10.9,0.374,21.962,1.015,32.97h0.374c2.245,0,4.382-0.748,6.68-0.748
		c0.855,0,1.817,0.214,1.817,1.282c0,0.588-0.321,1.069-1.069,1.176L272.771,248.989z"/>
	<path fill="#FCF3EA" d="M289.125,209.714c-3.313,0.213-4.809,0.16-4.916-0.749c0.107-1.816,0.107-2.458,5.664-2.137h4.489
		c1.176,0.053,3.153,0.214,3.153,1.763c0,0.481-0.588,1.016-1.069,1.016h-4.489l1.016,33.933c0,0.48-1.069,0.748-1.39,0.748
		c-0.32,0-1.389-0.268-1.389-0.748L289.125,209.714z"/>
	<path fill="#FCF3EA" d="M310.288,206.347c9.565,1.069,8.176,23.833,7.642,30.939c-0.374,3.901-2.351,10.688-7.695,10.688
		c-9.458,0-9.886-16.138-9.886-22.39C300.349,218.798,300.83,206.347,310.288,206.347z M303.395,225.37
		c0,15.657,2.885,19.932,6.68,19.932c5.236,0,5.29-13.572,5.29-16.939v-0.214c0-4.114-1.122-19.076-6.199-19.076
		c-4.008,0-5.718,8.924-5.718,11.596C303.395,222.378,303.395,223.874,303.395,225.37z"/>
	<path fill="#FCF3EA" d="M324.344,210.194c-0.107-2.138,2.832-3.42,3.954-0.32l10.901,29.55c0.053-2.351,0.481-15.496,0.801-20.733
		c0.161-3.206-0.053-6.466,0.642-9.458c0-0.588,0.587-0.588,1.389-0.588c1.282,0.054,1.389,0.107,1.336,1.282
		c-0.16,5.558-0.962,11.115-1.176,16.673c-0.107,3.099-0.641,17.9-0.641,21c-0.374,1.122-2.031,0.481-2.458-0.428
		c-0.535-1.122-0.962-2.19-12.291-32.489l-0.374,32.811c0,1.603-2.725,1.442-2.725,0.32L324.344,210.194z"/>
	<path fill="#FCF3EA" d="M350.584,217.676c1.443,0,2.404,1.122,2.404,2.618c0,1.176-1.122,1.336-2.137,1.336
		c-1.336,0-2.084-0.855-2.084-2.352C348.767,218.584,349.942,217.676,350.584,217.676z M350.584,244.928
		c1.443,0,2.404,1.122,2.404,2.618c0,1.176-1.122,1.336-2.137,1.336c-1.336,0-2.084-0.854-2.084-2.351
		C348.767,245.836,349.942,244.928,350.584,244.928z"/>
	<path fill="#FCF3EA" d="M377.784,206.881h0.214c9.618,0.428,10.954,11.703,10.954,19.505c0,0.802-0.053,1.603-0.053,2.298
		c-0.267,10.152-3.153,18.328-12.237,18.328c-0.748,0-1.497-0.053-2.298-0.214c0,0,0.053-5.984,0.107-8.442
		c0.16-6.84,0.427-13.306,0.694-20.253c0.054-0.908,0.161-8.71,0.214-9.725l0.054-0.321
		C375.486,207.148,376.982,206.881,377.784,206.881z M377.196,244.661c0.428,0.053,0.534,0.053,0.588,0.053
		c6.786,0,7.909-11.435,8.122-15.816c0.268-5.023,0.054-18.383-7.481-19.023L377.196,244.661z"/>
	<path fill="#FCF3EA" d="M394.298,210.515c0-0.962,0.908-1.87,1.87-1.87h8.443c0.321,0,1.39,0.802,1.443,1.069
		c0.054,0.106,0.054,0.16,0.054,0.267c0,1.068-1.443,1.55-2.298,1.55h-6.413l0.267,17.741l5.771-0.855h0.267
		c2.511,0,1.55,2.458-0.588,2.778l-5.344,0.802l-0.16,13.947c0.481,0.054,2.298,0.054,2.779,0.054c3.58,0,6.198-1.229,6.359,1.229
		c0.107,1.817-11.863,1.604-11.863,0.588L394.298,210.515z"/>
	<path fill="#FCF3EA" d="M411.079,205.973c0.32-0.428,2.03-1.068,2.458-0.641c0.214,0.106,0.962,0.801,1.015,1.015l4.542,32.917
		c1.763-9.779,3.633-22.123,5.343-31.901c0-1.817,0.748-2.084,1.71-2.084c0.802,0,1.336,0.106,1.71,1.068
		c-2.298,8.817-3.633,18.008-5.13,26.985l-2.084,13.733c-0.374,0.962-0.908,1.016-1.656,1.016c-0.588,0-1.176,0-1.39-0.695
		C414.766,234.027,413.644,219.6,411.079,205.973z"/>
	<path fill="#FCF3EA" d="M432.669,210.515c0-0.962,0.908-1.87,1.87-1.87h8.443c0.321,0,1.39,0.802,1.443,1.069
		c0.054,0.106,0.054,0.16,0.054,0.267c0,1.068-1.443,1.55-2.298,1.55h-6.413l0.267,17.741l5.771-0.855h0.267
		c2.511,0,1.55,2.458-0.588,2.778l-5.344,0.802l-0.16,13.947c0.481,0.054,2.298,0.054,2.779,0.054c3.58,0,6.199-1.229,6.359,1.229
		c0.107,1.817-11.863,1.604-11.863,0.588L432.669,210.515z"/>
	<path fill="#FCF3EA" d="M451.908,248.989c-0.053,0-0.694-27.573-0.694-31.207c0-1.016-0.642-9.191-0.695-10.206v-0.374
		c0-0.428,0-0.588,0.374-0.962c0.16-0.054,0.801-0.107,1.015-0.107c0.962,0,1.39-0.053,1.71,1.122
		c0.481,2.085,0.267,3.367,0.321,5.451c0.267,10.9,0.374,21.962,1.015,32.97h0.374c2.245,0,4.382-0.748,6.68-0.748
		c0.855,0,1.817,0.214,1.817,1.282c0,0.588-0.321,1.069-1.069,1.176L451.908,248.989z"/>
	<path fill="#FCF3EA" d="M472.857,206.347c9.565,1.069,8.176,23.833,7.642,30.939c-0.374,3.901-2.351,10.688-7.694,10.688
		c-9.459,0-9.886-16.138-9.886-22.39C462.918,218.798,463.399,206.347,472.857,206.347z M465.964,225.37
		c0,15.657,2.885,19.932,6.679,19.932c5.237,0,5.29-13.572,5.29-16.939v-0.214c0-4.114-1.121-19.076-6.198-19.076
		c-4.008,0-5.718,8.924-5.718,11.596C465.964,222.378,465.964,223.874,465.964,225.37z"/>
	<path fill="#FCF3EA" d="M486.272,236.324c0-4.274,0.267-24.26,0.374-28.534c0.268-0.748,1.604-0.642,2.244-0.642
		c5.558,0,9.565,4.916,9.565,10.26c0,5.771-3.954,12.237-9.245,14.695c-0.053,0.854-0.267,5.022-0.267,5.878
		c-0.054,1.816-0.054,10.046,0,11.81c-0.321,0.534-1.122,0.694-1.657,0.694c-0.48,0-0.588-0.054-1.015-0.32V236.324z
		 M489.104,228.523c0.374,0,0.854-0.107,1.122-0.375c3.1-2.832,4.916-6.091,4.916-10.366c0-2.778-1.977-7.802-5.664-7.802
		L489.104,228.523z"/>
	<path fill="#FCF3EA" d="M503.801,210.515c0-0.962,0.908-1.87,1.87-1.87h8.443c0.32,0,1.389,0.802,1.442,1.069
		c0.054,0.106,0.054,0.16,0.054,0.267c0,1.068-1.443,1.55-2.298,1.55H506.9l0.267,17.741l5.771-0.855h0.267
		c2.512,0,1.55,2.458-0.587,2.778l-5.344,0.802l-0.161,13.947c0.481,0.054,2.298,0.054,2.779,0.054c3.58,0,6.198-1.229,6.358,1.229
		c0.107,1.817-11.862,1.604-11.862,0.588L503.801,210.515z"/>
	<path fill="#FCF3EA" d="M521.65,244.768c0-12.023,0.428-24.153,0.748-36.177c0.106-2.458,1.016-2.458,3.152-2.458h0.535
		c4.916,0,8.068,3.207,8.068,7.909v0.588c0,3.9-1.016,8.442-4.542,10.848c0.268,0.267,1.496,1.71,1.71,2.084
		c2.404,3.152,1.816,10.794,2.084,14.48c0,0.321,0.32,2.779,0.32,3.1v0.428c0,0.908-0.854,1.015-1.549,1.015h-0.054
		c-0.588,0-1.282,0-1.496-0.748c-0.054-1.763-0.534-9.938-0.642-11.756c-0.214-2.618-0.748-6.198-4.008-6.198h-0.854
		c-0.107,0.48-0.321,2.618-0.321,3.1c-0.053,0.48-0.32,12.344-0.374,16.886c0,1.015,0.16,2.137-1.175,2.137
		c-0.588,0-1.229-0.213-1.604-0.748V244.768z M525.818,224.088c3.794,0,5.236-7,5.236-9.458c0-2.512-1.175-5.718-4.221-5.718
		c-0.802,0-1.336,0.48-1.336,1.389c0.053,4.649-0.374,8.55-0.374,13.306C525.124,224.034,525.498,224.088,525.818,224.088z"/>
	<path fill="#FCF3EA" d="M574.984,206.881h0.214c9.618,0.428,10.954,11.703,10.954,19.505c0,0.802-0.054,1.603-0.054,2.298
		c-0.267,10.152-3.152,18.328-12.236,18.328c-0.748,0-1.496-0.053-2.298-0.214c0,0,0.054-5.984,0.106-8.442
		c0.161-6.84,0.428-13.306,0.695-20.253c0.053-0.908,0.16-8.71,0.214-9.725l0.053-0.321
		C572.687,207.148,574.183,206.881,574.984,206.881z M574.396,244.661c0.428,0.053,0.534,0.053,0.588,0.053
		c6.786,0,7.908-11.435,8.122-15.816c0.268-5.023,0.054-18.383-7.48-19.023L574.396,244.661z"/>
	<path fill="#FCF3EA" d="M591.498,210.515c0-0.962,0.908-1.87,1.87-1.87h8.443c0.32,0,1.389,0.802,1.442,1.069
		c0.054,0.106,0.054,0.16,0.054,0.267c0,1.068-1.443,1.55-2.298,1.55h-6.412l0.267,17.741l5.771-0.855h0.267
		c2.512,0,1.55,2.458-0.587,2.778l-5.344,0.802l-0.161,13.947c0.481,0.054,2.298,0.054,2.779,0.054c3.58,0,6.198-1.229,6.358,1.229
		c0.107,1.817-11.862,1.604-11.862,0.588L591.498,210.515z"/>
	<path fill="#FCF3EA" d="M609.668,239.264c2.138,0.642,0.107,5.344,2.779,6.894h0.32c2.992,0,3.848-4.115,3.848-6.306
		c0-2.939-0.214-6.092-1.443-8.87c-2.511-5.771-7.908-10.581-7.908-17.207c0-2.992,1.816-7.962,5.504-7.962
		c2.352,0,6.252,1.87,6.252,4.649c0,1.015-0.32,1.603-1.39,1.603c-2.084,0-1.442-3.206-4.382-3.206
		c-2.725,0-2.938,3.794-2.938,5.664c0,5.397,4.542,9.191,6.946,13.68c2.191,4.115,3.313,10.1,2.031,14.161
		c-0.855,2.778-3.26,6.572-6.52,6.572c-3.954,0-5.184-4.916-5.184-8.122C607.584,239.905,608.813,238.996,609.668,239.264z"/>
	<path fill="#FCF3EA" d="M626.663,208.858c0.374-1.068,0.642-1.122,1.764-1.122c1.55,0,1.55,0.694,1.55,2.244
		c0,0.16-0.054,0.855-0.054,0.962l-1.603,36.551c-0.107,2.351-3.1,2.564-3.1,1.015L626.663,208.858z"/>
	<path fill="#FCF3EA" d="M633.291,228.096c0-6.68,0.801-20.359,9.778-20.841l0.428-0.053c2.084,0,5.932,1.336,5.932,3.366
		c0,0.214-0.054,0.428-0.16,0.694c-1.069,2.565-2.886-1.175-5.985-1.603h-0.268c-4.916,0.641-6.679,7.214-6.679,16.138v1.176
		l0.106,5.824c0.214,3.58,1.336,12.076,6.146,12.076h0.214c3.526-0.213,4.061-7.427,4.221-9.938
		c0.214-1.817,0.481-3.688,0.374-5.664c-0.16-3.367-6.092,0.267-6.252-2.565c0-1.229,1.496-1.496,2.405-1.496l0.962-0.054
		c1.282-0.053,5.878-0.16,5.878,2.031v1.015c-0.054,1.657-0.481,7.588-0.588,8.443c-0.481,4.702-1.55,10.634-7.268,10.9h-0.428
		c-8.176,0-8.764-12.984-8.816-18.702V228.096z"/>
	<path fill="#FCF3EA" d="M656.378,210.194c-0.107-2.138,2.832-3.42,3.954-0.32l10.9,29.55c0.054-2.351,0.481-15.496,0.802-20.733
		c0.16-3.206-0.054-6.466,0.642-9.458c0-0.588,0.588-0.588,1.389-0.588c1.283,0.054,1.39,0.107,1.336,1.282
		c-0.16,5.558-0.961,11.115-1.175,16.673c-0.107,3.099-0.642,17.9-0.642,21c-0.374,1.122-2.03,0.481-2.458-0.428
		c-0.534-1.122-0.962-2.19-12.29-32.489l-0.374,32.811c0,1.603-2.726,1.442-2.726,0.32L656.378,210.194z"/>
	<path fill="#FCF3EA" d="M680.8,210.515c0-0.962,0.908-1.87,1.87-1.87h8.443c0.32,0,1.389,0.802,1.442,1.069
		c0.054,0.106,0.054,0.16,0.054,0.267c0,1.068-1.443,1.55-2.298,1.55h-6.412l0.267,17.741l5.771-0.855h0.267
		c2.512,0,1.55,2.458-0.587,2.778l-5.344,0.802l-0.16,13.947c0.48,0.054,2.297,0.054,2.778,0.054c3.58,0,6.198-1.229,6.358,1.229
		c0.107,1.817-11.862,1.604-11.862,0.588L680.8,210.515z"/>
	<path fill="#FCF3EA" d="M698.65,244.768c0-12.023,0.428-24.153,0.748-36.177c0.106-2.458,1.016-2.458,3.152-2.458h0.535
		c4.916,0,8.068,3.207,8.068,7.909v0.588c0,3.9-1.016,8.442-4.542,10.848c0.268,0.267,1.496,1.71,1.71,2.084
		c2.404,3.152,1.816,10.794,2.084,14.48c0,0.321,0.32,2.779,0.32,3.1v0.428c0,0.908-0.854,1.015-1.549,1.015h-0.054
		c-0.588,0-1.282,0-1.496-0.748c-0.054-1.763-0.534-9.938-0.642-11.756c-0.214-2.618-0.748-6.198-4.008-6.198h-0.854
		c-0.107,0.48-0.321,2.618-0.321,3.1c-0.053,0.48-0.32,12.344-0.374,16.886c0,1.015,0.16,2.137-1.175,2.137
		c-0.588,0-1.229-0.213-1.604-0.748V244.768z M702.818,224.088c3.794,0,5.236-7,5.236-9.458c0-2.512-1.175-5.718-4.221-5.718
		c-0.802,0-1.336,0.48-1.336,1.389c0.053,4.649-0.374,8.55-0.374,13.306C702.124,224.034,702.498,224.088,702.818,224.088z"/>
</g>
<path fill="#FCF3EA" d="M562.579,228.715l-0.035-0.484c-0.341-0.928-0.822-1.063-1.293-1.063l-5.202,0.115
	c-0.236,0.043-0.482,0.02-0.704-0.087c-0.447-0.213-0.647-0.661-0.599-1.154c0.109-1.052,0.254-2.13,0.254-3.205v-0.773
	c0-1.78-0.33-3.43-0.807-4.896c-0.422-1.391-1.118-1.573-1.698-1.573l-0.675,0.07c-0.905,0.364-0.82,0.771-0.82,0.973v0.176
	c0,1.842,0,3.762,0,5.703v0.389l0.227,3.481c-0.028,0.587-0.285,1.126-0.867,1.182l-5.51,0.539c-0.964,0.404-0.85,0.958-0.85,1.499
	v0.27c0,0.184-0.133,0.257-0.133,0.257c0.352,0.904,0.594,1.254,0.729,1.254l5.121,0.017c0.025,0,0.044,0,0.067,0
	c0.33,0,0.669-0.217,0.891,0.022c0.24,0.261-0.765,0.437-0.813,0.786c-0.471,3.389-1.861,5.941-1.861,7.93v0.268
	c0,0.441,1.148,1.1,2.656,1.33c0.752-0.018,1.768-0.302,2.052-0.954c0.147-3.679,0.713-6.85,1.115-9.427
	c0.089-0.561,0.712-0.982,1.279-0.993l6.314-0.142C562.318,229.897,562.579,229.387,562.579,228.715z"/>
</svg>
