<?xml version="1.0" encoding="UTF-8" standalone="no"?>
<!DOCTYPE svg  PUBLIC '-//W3C//DTD SVG 1.1//EN'  'http://www.w3.org/Graphics/SVG/1.1/DTD/svg11.dtd'>
<svg xmlns="http://www.w3.org/2000/svg" xml:space="preserve" height="250px" viewBox="0 0 1000 250.485" width="1e3px" version="1.1" y="0px" x="0px" xmlns:xlink="http://www.w3.org/1999/xlink" enable-background="new 0 0 1000 250.485">
<rect y=".402" width="1e3" display="none" height="250"/>
	<path d="m278 67.4c2.91 2.49 5.81 3.53 8.93 3.74 3.32 0.207 6.85-0.622 10.8-2.08 3.94-1.45 6.85-4.36 9.34-8.1s3.11-6.64 0.416-10.4c-3.94-5.6-9.34-10.6-16.4-8.72-1.66 0.208-3.11 0.83-4.57 1.66-2.91 1.66-6.02 4.36-8.1 7.06-2.91 3.74-4.77 10.8-2.08 14.9 1 0.8 2 1.2 2 1.9z" fill="#FBDE3B"/>
	<linearGradient id="SVGID_1_" y2="134" gradientUnits="userSpaceOnUse" x2="1e3" y1="134" x1="232">
		<stop stop-color="#FBDE3B" offset="0"/>
		<stop stop-color="#F7931E" offset=".4"/>
		<stop stop-color="#F7931E" offset=".55"/>
		<stop stop-color="#FBD13B" offset="1"/>
	</linearGradient>
	<path d="m993 141c-2.08 3.32-3.11 5.6-4.57 8.93-1.66 4.57-5.19 9.14-7.68 12.2-0.415 0.83-4.57 4.15-5.6 3.94-1.04-0.415-0.624-3.94-0.624-4.77-0.414-9.34-0.622-20.3 0.209-30.3-0.209-2.08 0.207-4.98 0.415-7.06 1.04-8.3 1.87-18.1 1.24-26.4-0.622-6.02-7.06-10.6-12.2-8.72-3.32 1.24-5.81 4.15-7.89 6.85-2.7 3.53-8.3 20.1-8.72 20.1-0.831-0.207-0.624-7.47-0.624-7.89l-0.621-9.13c-0.415-4.98-3.94-8.1-9.34-7.47-3.32 0.416-4.78 1.87-4.98 4.98-0.415 6.85-1.45 13.7-1.66 20.8-0.262 8.65-0.686 17.3-1.07 25.7-2.08 4.93-3.64 9.24-7.03 14.8-0.83 1.25-6.03 7.06-7.69 6.44-1.66-0.415-1.46-2.49-1.46-4.15v-0.83c0-4.98 0.008-9.96 0.216-14.9 0-5.81-0.101-9.76-0.308-15.8-0.621-9.96-0.257-15.6-0.257-27.6 0-2.91-0.233-5.81-0.856-8.51-0.622-3.53-0.219-7.47-2.09-10.8-0.622-1.25-1.25-2.49-2.91-2.28-2.08 0.207-4.36 0.415-4.98 2.49-0.414 1.66-1.25 3.11-1.25 4.77-0.207 5.19-0.001 5.19-0.623 10.6-0.831 7.26-0.417 12.5-1.66 19.7-1.87 10.2-1.24 17.6-3.32 27.8-1.24 6.64-3.32 29.5-9.55 21-0.416-0.415-0.416-0.829-0.623-1.25-1.66-7.47-0.623-15.2-1.04-22.6-0.207-3.53 0-4.98 0-8.51-0.207-6.02-1.24-10.2-0.831-16.2 0.416-6.23 0.208-6.02-0.83-12-0.622-4.15 0.416-8.3-0.829-12.2-1.25-3.74-3.53-5.81-7.06-5.81-3.94-0.208-6.44 1.87-7.47 5.81-3.32 13.3-3.11 20.8-2.28 32.4 0.275 5.93 0.367 11 0.397 16.5-4.64 5.98-7.54 7.27-12.4 12-1.66 1.45-2.08 0.83-2.91-0.622-2.49-4.77-5.4-9.13-9.13-13.1-4.57-4.98-9.96-8.93-15.4-12.7-2.91-2.08-3.94-3.53-2.91-6.85 0.623-1.87 1.66-3.11 3.53-4.15 4.78-2.7 13.7-3.32 18.5-6.23 2.7-1.66 1.66-7.89 0.623-9.55-3.53-5.6-8.1-7.06-14.5-5.4-0.414 0.208-1.24 0.208-1.66 0.415-8.51 2.28-17.4 10.4-19.3 19.5-1.16 5.79-0.856 12.8 1.19 18.1-7.03 4.87-11 7.47-13.6 8.87-4.57 2.7-6.85 3.32-11.8 6.02-0.829 0.623-2.49 1.87-2.7 0-0.207-2.7-1.04-5.19-0.207-7.47 5.4-12.7 10.2-25.3 12.5-38.6 2.28-13.1 4.36-21.4 4.36-30.7 0-7.06-0.831-13.1-5.4-19.3-1.66-2.28-4.36-4.15-7.47-3.53-3.74 0.829-6.64 3.11-8.51 6.02-4.15 7.47-7.06 15.4-9.55 23.2-3.74 11.8-4.36 28.2-4.36 40.1 0 4.24 0.039 8.47 0.078 12.7-3.58 0.555-6.58 0.362-8.59 0.16-1.66-0.208-2.49-2.08-2.49-3.94 0-3.74-0.624-7.06-0.831-10.6-0.829-7.06-4.98-11.8-10.8-14.7-0.83-0.414-1.25-0.623-2.08-0.414-3.32 0.414-6.02 2.49-7.27 5.81-0.622 1.66-0.831 3.74-1.04 5.6-1.45 9.34 2.7 18.9 11.4 22.8 1.04 0.622 1.87 1.04 1.87 2.7-0.207 1.87 0 3.94-0.415 3.94-1.04 7.26-3.53 14.3-6.85 21-1.04 2.7-2.7 5.19-4.15 7.68-1.45 2.08-3.32 2.49-4.15 0.83-2.91-4.36-5.4-8.72-5.81-14.3-1.45-10.8-1.87-21.8-2.08-32.6 0-6.23-0.415-12.5 1.24-18.5 1.87-5.81 5.81-8.93 12.5-10.2 1.45-0.207 2.08-1.24 1.87-2.9-0.831-2.7-4.57-7.06-7.89-7.68-6.23-0.829-14.7 3.32-18.1 8.72-2.7 4.57-4.98 9.34-6.23 14.5-2.5 10.6-3.56 20.8-4.2 32.1-2.65 4.26-4.12 7.88-7.01 12.7-3.53 6.02-9.55 11.6-14.7 12.9-1.87 0.414-7.27-1.24-8.3-3.53-0.623-1.24-1.04-2.49-2.08-3.53-2.08-3.94-2.91-8.1-3.53-12.2-0.207-1.25 0.209-2.28 1.45-3.11 4.77-2.7 8.1-6.64 11.4-10.8 2.7-3.53 4.77-7.27 7.47-10.8 3.11-4.15 5.6-8.51 6.23-13.9 0.209-3.32-0.622-6.64-1.04-9.96-0.416-3.94-2.7-6.02-6.02-7.47-7.68-2.7-14.3 0-19.9 4.36-6.23 4.98-11.8 11.2-14.1 19.3-3.25 11.3-4.57 22.5-2.92 33.6-1.02 3.35-1.88 6.71-3.93 10.2l-3.11 5.4c-2.49 4.15-3.53 5.81-7.06 9.34-0.83 0.831-3.53 1.66-4.77 1.24-1.04-0.414-1.66-1.66-1.87-2.91-0.415-3.11-0.622-4.15-0.622-7.26 0.207-4.36 1.04-8.72 1.04-13.3 0-8.1 1.04-16.4 1.87-24.3l1.66-16.4c0.622-5.19 1.66-10.4 1.45-15.8 0-2.7-0.207-5.81-1.87-7.68-3.11-3.32-8.3-5.6-12.7-6.44-6.23-1.24-13.9 0.415-19.3 3.32-4.36 2.28-8.93 4.15-11.4 9.34-2.9 6.02 0.416 16.6 7.06 17.4 1.87 0.208 6.43 0 7.89-1.45 3.32-3.32 3.74-7.47 4.15-11.6 0.415-4.15 2.7-8.3 7.26-8.51 1.87 0 3.53 0.414 3.94 2.7 1.24 8.1 1.24 16.4 0.414 24.7-0.207 1.66-1.04 1.66-2.28 0.83-1.66-1.24-3.74-1.45-6.02-1.45-3.94 0.207-7.47 1.45-10.8 3.53-8.35 5.31-13.9 12.9-16.9 22.1-4.52 7.18-9.97 14-15.1 20.5-2.28 3.11-5.19 6.44-8.51 8.72-2.28 1.45-2.28 1.25-2.9-1.45-0.624-2.28-0.416-4.36-0.209-6.64 1.66-13.5 3.74-23 9.55-35.5 2.08-4.77 4.77-11.6 1.66-16.4-1.45-1.87-6.64-2.91-10.4-4.57-4.98-1.87-13.1-2.91-17-4.57-1.66-0.83-1.24-1.04-1.45-2.91-0.207-3.74-0.415-5.4-1.45-9.13-0.831-2.49-1.87-4.36-2.49-5.81-1.45-2.7-3.74-4.36-6.23-3.32-6.44 2.49-10.8 7.68-9.34 14.9 0.829 3.53 2.9 6.23 4.98 8.93 0.83 0.829 1.45 1.87 1.45 3.11-0.416 5.19-0.624 10.2-1.04 15.4-0.623 6.44-2.91 12.9-5.4 19.5-1.66 3.74-3.32 7.06-6.02 11.4-3.53 6.02-10.6 11.6-15.8 12.9-1.87 0.414-7.26-1.24-8.3-3.53-0.623-1.24-1.04-2.49-2.08-3.53-2.08-3.94-2.91-8.1-3.53-12.2-0.209-1.25 0.207-2.28 1.45-3.11 4.77-2.7 8.1-6.64 11.4-10.8 2.7-3.53 4.77-7.27 7.47-10.8 3.11-4.15 5.6-8.51 6.23-13.9 0.207-3.32-0.624-6.64-1.04-9.96-0.416-3.94-2.7-6.02-6.02-7.47-7.68-2.7-14.3 0-19.9 4.36-6.23 4.98-11.8 11.2-14.1 19.3-3.41 11.9-4.68 23.6-2.65 35.2-0.501 1.16-1.06 2.46-1.71 4.06-3.11 7.68-4.15 9.96-10.2 16-1.87 1.87-6.02 2.08-8.3 1.04-3.11-1.45-3.32-4.57-4.36-7.47-2.28-6.23-0.831-12.9-2.28-19.3-1.04-4.77-1.25-9.55 0.208-14.5 0.622-2.28 1.87-4.57 2.28-6.85 1.87-10.8 5.4-21.2 8.51-31.6 4.15-13.9 7.68-26.6 6.23-41.1-0.622-6.64-2.49-13.1-8.51-15.2-0.624-0.207-0.416-1.45-4.98-1.45-4.77 0-12-0.208-16 7.68-5.19 10.4-4.98 28.6-5.4 39.9-0.417 13.1-2.28 26.2-1.66 39.2 0.208 3.94 0.208 7.89 0.416 11.8 0.197 3.41 0.358 6.84 0.57 10.3-0.133 0.261-0.258 0.507-0.367 0.726-3.74 7.47-3.53 8.72-5.4 12-2.49 4.36-2.7 5.81-6.64 10.4-2.28 2.49-3.53 5.19-9.34 5.81-1.87 0.208-4.36-0.622-5.19-2.49-0.831-2.08-2.28-4.36-2.49-6.64-0.416-3.53 0-7.27-0.208-10.8 0-8.51-0.622-12.9 0.623-21.4 0.622-4.57 0.622-9.34 1.04-13.9 0.622-6.02 0.831-24.7 0.831-30.9 0-2.08 0.415-3.11 2.49-3.74 4.77-1.66 9.55-2.49 13.7-5.4 4.15-2.9 7.89-6.02 8.93-11.6 0.623-3.53-2.08-6.64-4.77-5.4-2.49 1.45-4.57 3.11-7.06 4.98-3.32 2.49-7.68 3.53-11.4 5.6-1.66 1.04-1.04-6.64-0.83-8.72 0.622-6.02 0.622-7.89 0.622-12.5 0-3.74-0.208-7.47-2.7-9.13s-3.11-2.49-5.4-2.49c-3.94 0-5.6 0.832-8.3 3.94-4.15 4.36-6.9 7.68-8.35 13.7-1 6.2 0 15 0 19.5v3.74c-6 1.04-14.5 1.87-17 1.87-2.49 0.207-3.19-0.415-3.19-2.91-0.415-3.74-0.351-6.43-0.973-13.5-0.623-4.57 1.07-8.3-3.08-11.8-2.28-1.87-4.55-3.32-6.83-4.98-3.32-2.28-7.05-1.25-8.3 2.7-2.08 6.23-2.7 10.8-1.86 17.4 0.831 6.02 1.25 7.26 1.66 10.4 0.208 1.66 0.001 2.28-1.87 2.28-3.53 0.208-4.78 0-8.1-0.832-3.74-1.04-5.6 0.623-6.23 3.94-0.831 3.94-0.416 7.89 3.53 10.2 3.94 2.08 6.23 1.87 10.6 2.49 1.87 0.207 2.49 0.829 2.49 2.49-0.208 8.93-0.831 21.2-0.831 30.1 0 2.07 0.057 4.1 0.097 6.14-0.628 0.41-1.12 1.1-1.55 1.75-2.28 2.91-3.32 6.44-4.36 9.96-2.7 9.34-7.26 17.6-11.8 26.2-0.831 1.24-4.15 2.7-5.81 2.28-1.66-0.207-2.28-1.87-2.49-3.53-2.08-13.1-0.208-26.6 0.416-39.9 0.415-8.1 2.91-16.2 2.28-24.3-0.208-2.7-0.208-7.68-0.623-10.4-0.831-9.13-9.34-7.06-15.4-4.15-3.32 1.66-4.77 5.4-5.81 8.72-2.28 7.48-2.08 15.2-1.66 23 0.399 6.58 0.972 13.2 0.833 19.6-1.76 4.41-2.87 6.46-5.4 12.6-3.11 7.68-4.15 9.96-10.2 16-1.87 1.87-6.02 2.08-8.3 1.04-3.11-1.45-3.32-4.57-4.36-7.47-2.28-6.23-0.83-12.9-2.28-19.3-1.04-4.77-1.25-9.55 0.208-14.5 0.623-2.28 1.87-4.57 2.28-6.85 1.87-10.8 5.4-21.2 8.51-31.6 4.15-13.9 7.68-26.6 6.23-41.1-0.623-6.64-2.49-13.1-8.51-15.2-0.623-0.207-0.415-1.45-4.98-1.45-4.78 0-12-0.208-16 7.68-5.19 10.4-4.98 28.6-5.4 39.9-0.415 13.1-2.28 26.2-1.66 39.2 0.208 3.94 0.208 7.89 0.416 11.8 0.623 10.8 0.831 21.8 3.74 32.4 1.87 6.64 1.87 13.5 7.27 18.5 4.57 4.36 13.3 6.43 18.5 3.32 3.32-2.08 4.98-4.36 8.1-6.64 1.66-1.24 2.08-2.28 3.53-3.94 4.36-4.98 6.85-7.89 8.72-14.1 0.244-0.798 0.467-1.54 0.68-2.25 0.369 1.67 0.823 3.32 1.4 4.95l3.11 8.72c2.08 5.19 4.77 9.96 9.96 13.1 2.7 1.87 7.89 1.87 10.6 0 3.94-2.91 7.68-6.64 9.34-11.4 2.7-7.06 5.19-14.1 8.51-21 1.1-2.27 1.88-4.65 2.54-7.08 0.139 7.07-1.57 21.8 0.576 27.6 2.7 7.06 6.23 10.6 12.2 13.3 3.32 1.45 8.51 0.414 11-1.45 6.44-4.36 13.7-10.6 17.6-17.2 1.04-1.87 2.28-3.53 3.32-5.4 2.7 5.4 6.44 10.2 11.8 13.5 4.15 2.49 8.72 4.36 13.5 3.74 8.1-1.04 10.8-1.66 14.9-8.1 3.68-5.62 5.29-8.27 7.08-12.3 0.298 1.42 0.631 2.84 1.02 4.24 1.87 6.64 1.87 13.5 7.26 18.5 4.57 4.36 13.3 6.43 18.5 3.32 3.32-2.08 4.98-4.36 8.1-6.64 1.66-1.24 2.08-2.28 3.53-3.94 4.08-4.66 6.51-7.54 8.34-13 0.13 0.316 0.244 0.633 0.379 0.949 3.53 8.3 15.2 13.5 24.9 13.5 3.53 0.208 15.9-0.829 21.2-4.77 9-7 15-15 17-26v-0.208c0-0.414 0.547-1.04 0.547-1.45 2.08-10.8 5.88-21.4 5.26-32 0-1.87 0.655-2.7 2.52-2.7 2.28 0 6.66 3.11 9.57 4.57 1.24 1.04 2.29 1.66 2.08 3.53-0.209 1.87-0.411 1.66-0.826 3.32-1.87 5.6-2.49 5.81-3.94 11.6-2.7 10.6-3.32 21.2-0.828 31.8 1.24 6.23 2.28 11.6 7.26 15.8 1.66 1.25 3.32 2.28 5.4 1.66 2.28-0.624 4.57-1.87 6.23-3.53 3.32-3.11 7.06-6.44 9.76-9.96 1.24-1.58 2.55-3.15 3.83-4.73 0.061 3.24 0.207 6.53 1.57 9.72 2.28 4.98 4.57 8.93 8.93 13.3 2.9 2.91 7.68 2.91 11.6 2.91 6.85 0 13.3-10.4 15.2-16.6l0.622-0.831c0.623 0 0.623 0.415 0.83 0.831l1.66 3.53c2.9 7.26 15.2 8.72 20.1 3.53 3.11-3.11 5.4-6.85 7.68-10.6 1.68-2.81 2.96-5.74 4.03-8.72 0.245 0.625 0.48 1.25 0.747 1.87 3.53 8.3 15.2 13.5 24.9 13.5 3.53 0.208 8.72-1.24 11.8-4.77 5.78-6.59 9.45-10.4 13-16.9 1.87 8.36 6.59 15.6 13.3 21.6 5.4 4.98 11.6 7.47 18.9 7.47 4.15 0 8.72-2.9 10.4-6.44 3.32-7.26 4.98-14.7 6.23-22.4 0.831-5.81 1.87-9.34 1.87-14.9 0-2.08 0.83-1.45 3.53-1.25 2.88 0 6.03 0.811 8.9 0.552 0.215 15.4 0.578 30.8 0.858 46.2-0.207 4.77 0.207 9.55 1.04 13.9 3.32 11.8 6.64 23.2 17 31.3 6.44 5.19 14.7 3.94 18.3-3.11 7.89-16.4 11.4-33.6 2.49-51.1-1.87-3.53-5.4-9.34-7.06-11.4-2.91-3.32-4.78-4.98-8.1-7.47-2.9-2.08-1.66-2.91 0.207-3.74 3.94-1.87 6.23-1.87 12.5-5.19 5.61-2.6 7.75-4.64 13.7-9.63 5.07 5.35 12.5 8.77 16.8 15 1.45 2.28 3.11 4.57 3.74 7.27 0.414 1.66 0.207 2.49-1.45 3.11-3.94 1.66-7.89 3.53-11.6 5.19-6.02 2.28-11.6 10.2-11.6 16.4 0 4.77 1.04 9.34 4.98 12.5 3.53 2.9 7.68 4.98 11.2 4.57 6.64-0.208 11.8-0.416 16-4.57 2.28-2.28 3.74-4.98 4.98-7.68 3.32-8.3 5.81-16.6 5.4-25.5 0-1.04 0.416-2.08 1.24-2.7 4.33-3.25 7.43-5.9 10.4-9.18-0.038 2.56 0.133 5.04 0.979 7.72 2.7 8.1 4.57 17.4 13.9 19.9 3.11 0.829 8.3 1.87 10.2 0 2.49-2.08 4.78-4.57 6.23-7.68l2.91-7.27c0.207-0.415 0.414-1.04 0.621-1.04 0.416-0.208 0.831 0.416 0.831 0.83 1.66 3.94 4.57 6.64 8.1 8.93 1.87 1.04 3.94 1.45 6.02 0.624 2.49-1.04 4.77-2.49 6.85-4.36 3.34-2.84 5.34-6.48 7.39-10.3 0.434 9.82 1.84 17.9 4.24 27.1 0.414 1.87 1.66 3.74 3.32 4.77 4.57 2.49 11.2-1.25 11.6-6.23 0.831-6.23 0.416-10.6 1.04-16.6 0.624-8.3 0.416-16.6 0.209-24.9 0-3.74 0.207-7.68 1.45-11.4 1.66-4.98 2.49-10.2 4.77-14.9l5.6-11.6c0.207-0.831 0.831-1.87 1.24-2.28 1.66-2.91 6.02-3.53 6.02 2.7 0.415 7.68-1.87 15.4-2.91 23-1.24 10.2-2.28 23.9-1.45 34.3 0.208 3.74 1.25 6.64 3.53 9.34 4.36 5.19 8.51 5.6 13.5 1.04 5.81-5.6 8.3-8.93 12-16.4 3.11-6.23 5.81-12.7 7.47-19.1 0-5-4-5-7-1zm-743-37c0-13.7 1.04-26.4 1.66-40.1 0.208-4.98 1.25-12.9 3.74-17.2 1.04-1.87 3.94 2.91 5.19 4.77 2.28 3.32 1.45 7.06 1.25 10.6-0.416 8.1-2.28 13.7-4.36 21.4-1.87 7.06-3.53 13.9-5.81 20.8-0.208 0.624-0.416 1.45-1.04 1.25-1 1-1 0-1-1zm120 35c-0.208 3.32-0.415 6.85-0.415 9.96-2.28 4.36-4.77 8.1-7.47 11.2-3.94 4.36-7.26 10.4-11.6 14.3-2.49 1.87-4.77 0.415-5.4-2.7-0.624-2.7-0.831-6.23-0.831-8.93 0-15.2 0.623-30.1 2.28-45 0.831-6.85 0.831-16.8 1.04-23.7 0.207-2.7 0.415-4.15 3.94-4.36 6.02-0.207 12-1.04 17.4-2.28 1 16.4 2 39.4 1 52.4zm65-35c0-13.7 1.04-26.4 1.66-40.1 0.208-4.98 1.25-12.9 3.74-17.2 1.04-1.87 3.94 2.91 5.19 4.77 2.28 3.32 1.45 7.06 1.24 10.6-0.416 8.1-2.28 13.7-4.36 21.4-1.87 7.06-3.53 13.9-5.81 20.8-0.208 0.624-0.416 1.45-1.04 1.25-1 1-1 0-1-1zm45 24c-1.04-0.416-0.83-4.15-0.83-5.81 0.414-7.47 0.207-13.1 4.57-19.1 1.04-1.66 2.49-3.11 4.15-3.74 2.08-1.04 3.32-0.415 3.32 2.28 0 2.28 0.208 7.89-0.83 9.96-1.87 5.81-4.15 9.76-7.89 14.5 0 1-1 3-2 2zm136 3c-1.04 10.2-1.87 18.9-1.24 29.1 0 0.623-0.831 2.7-1.04 3.11-2.28 4.15-2.08 5.4-6.85 9.55-0.623 0.622-5.06 1.66-6.09 1.04-0.832-0.624-1.32-1.66-1.32-2.91v-4.15c0-9.76 1.94-16.4 3.81-25.9 0.207-1.66 0.554-3.32 0.969-4.98 0.831-3.94 5.36-7.26 9.52-7.26 0-1 1 0 1 2zm47-3c-1.04-0.416-0.83-4.15-0.83-5.81 0.414-7.47 0.207-13.1 4.57-19.1 1.04-1.66 2.49-3.11 4.15-3.74 2.08-1.04 3.32-0.415 3.32 2.28 0 2.28 0.208 7.89-0.83 9.96-1.87 5.81-4.15 9.76-7.89 14.5 0 1-1 3-2 2zm81-3c-0.624 0.207-2.91-2.08-3.11-2.49-1.04-1.87-2.7-3.74-2.08-6.23 0-0.207 1.24-2.91 2.28-3.11 1.25-0.208 2.49 2.49 2.7 3.11 0.208 1.87 0.415 4.77 0.415 6.64v1zm36 0c-0.415-0.415-0.415-1.25-0.415-2.08 0.207-2.07 0-3.94-0.207-6.23 0.207-13.1 0.622-30.7 2.7-44.2 0.208-1.66 0.415-4.98 2.28-4.98 1.66 0.207 3.11 3.32 3.32 5.81 0.415 1.45 0 2.7 0 3.74-0.621 13.9-3.11 30.5-6.02 43.8-0.209 1.04-0.209 1.66-0.416 2.49-1 0 0 2-2 2zm7 43c1.87 3.32 3.53 6.85 4.57 10.4 1.45 4.36 3.32 7.68 4.98 11.8 1.45 3.74 1.45 5.4 2.08 9.34 1.87 6.02 0.416 12.7-1.04 19.1-0.622 2.28-1.66 4.57-3.11 6.64-2.49 2.9-5.4 2.28-6.64-1.25-2.08-5.19-2.28-11-3.53-16.4-1.66-11.6-1.24-23.7-1.66-35.5 0-1.24 0.207-2.28 0.207-3.53 0-0.829 0-2.28 1.24-2.7 2 1 3 2 4 3zm46 12c-2.49 4.77-5.6 8.93-9.76 11.6-0.207 0.207-0.621 0.207-0.621 0.414-1.45 0-3.32-3.11-2.7-4.36 2.07-4.36 5.4-7.89 9.76-10.2 1.24-0.623 2.91-2.7 3.74-1.87 2 1 1 2 0 4z" fill="url(#SVGID_1_)"/>
<g fill="#FBDE3B">
	<path d="m109 62.2c0.034 0.336 1.38 0.353-0.574 0.983-0.772 0.23-1.53 0.437-2.27 0.625-0.732 0.234-1.45 0.468-2.16 0.695l-2.12 0.644c-0.688 0.249-1.36 0.521-2.05 0.781-0.682 0.271-1.36 0.541-2.05 0.813-0.669 0.307-1.32 0.667-1.98 1.02-0.662 0.362-1.32 0.742-1.99 1.15-0.638 0.442-1.26 0.935-1.9 1.44-0.017 0.234-0.033 0.472-0.05 0.71-4.1 2.81-7.98 6.4-11.2 10.7-2.75 4.12-4.67 8.75-5.88 13.5-1.18 4.76-1.69 9.71-1.22 14.5 0.187-0.266 0.363-0.388 0.476 0.56 0.235 2.01 0.547 4.51 1.23 7.13 0.079 0.33 0.158 0.666 0.238 1 0.107 0.33 0.217 0.662 0.327 0.998 0.226 0.668 0.456 1.35 0.688 2.04 0.212 0.696 0.565 1.35 0.855 2.03 0.312 0.674 0.604 1.37 0.956 2.03 0.48 0.747 0.96 1.49 1.43 2.23 0.449 0.522 0.699 0.564 0.863 0.583 0.788 1.08 1.49 2.14 2.25 3.08 0.788 0.91 1.52 1.81 2.27 2.61 2.68 2.48 5.73 4.52 8.96 6.14 3.25 1.62 6.77 2.64 10.3 3.24l2.69 0.332c0.898 0.067 1.8 0.063 2.7 0.088 0.451 0.003 0.9 0.033 1.35 0.009l1.35-0.1c0.905-0.089 1.78-0.098 2.7-0.271 3.7-0.528 7.32-1.76 10.6-3.65 6.49-3.74 11.4-10 13.5-17.2 1.03-3.58 1.34-7.38 0.901-11.1-0.376-3.81-1.84-7.56-4.02-10.7-3.93-5.29-10-8.39-15.9-9.06-2.2-0.286-4.51-0.348-6.99 0.091-2.45 0.43-4.89 1.41-7.01 2.87-2.12 1.45-3.92 3.35-5.22 5.47-1.31 2.12-2.11 4.44-2.43 6.66 0.264-0.14 0.452 0.085 0.595 0.546 0.19 0.464 0.314 1.16 0.504 1.99 0.103 0.412 0.216 0.856 0.335 1.33 0.135 0.471 0.311 0.959 0.471 1.45 0.406 0.971 0.866 1.96 1.49 2.82 1.19 1.74 2.76 2.94 3.88 3.36 1.13 0.422 1.66 0.261 1.32-0.586 0.828 0.65 1.87 1.27 3.01 1.64 1.14 0.378 2.34 0.525 3.42 0.481 2.17-0.04 3.46-1.03 3.47-1.28-0.013-0.484 0.088-0.975 0.196-1.6 0.124-0.603 0.284-1.3 0.362-2.1 0.025-0.408 0.059-0.82 0.013-1.26-0.02-0.429-0.104-0.874-0.259-1.32-0.021-0.108-0.073-0.221-0.122-0.333l-0.062 0.095-0.127 0.256h1v-0.527c0-0.284 0.064 0.378 0.057 0.31l-0.057-0.06v-0.115l0.113-0.23 0.056-0.232c-0.001-0.075 0.043-0.191 0.032-0.13-0.027 0.039-0.002 0.082-0.01 0.124-0.007 0.013 0.026 0.056 0.011 0.044l-0.038-0.028c-0.03-0.021-0.042-0.045-0.068-0.063-0.125-0.07-0.231-0.134-0.35-0.18-0.129-0.038-0.251-0.065-0.366-0.076-0.173-0.035-0.295-0.088-0.465-0.118-0.021-0.02-0.045-0.005-0.068-0.008-0.012-0.003-0.024-0.006-0.036-0.012l0.017 0.3 0.022 0.3 0.061-0.006-0.033-0.293c1.37-1.19 0.02-0.998 0.164-0.998h-0.009l-0.134 0.063-0.286 0.023c-0.072-0.006-0.27 0.008-0.154-0.001 0.091-0.012 0.204-0.055 0.258-0.09-0.012-0.038 0.01 0.021 0.03 0.04 0.058 0.059-0.005-0.003-0.049-0.01 0.006 0-0.023-0.006 0-0.003-0.003 0.001-0.004-0.101 0.027-0.098 0.026-0.001 0.04-0.103 0.06-0.104 0.176-0.017 0.326-0.029 0.454-0.039 0.259 1.46 0.333 0.747 0.431 0.279 0.01-0.061 0.02-0.083 0.033-0.155-0.276 0.018-0.563 0.094-0.859 0.094h-0.017c-0.027 0-0.05 0.014-0.082 0.014-0.006 0.002-0.032 0.009-0.048 0.003 0.007 0.003-0.009 0.004-0.011 0.004 0.013 0.001 0.058 0.023 0.074 0.032 0.005 0.006 0.009 0.008-0.005 0 0.046 0.037-0.019-0.015-0.034-0.052-0.007-0.012-0.002-0.005 0 0.003 0.033-0.022-0.1 0.063-0.155 0.072-0.062 0.029-0.239 0.037 0.017 0.041l0.52 0.015c-0.072 0.731 0.901-1.71-0.099 1.64v-0.029l-0.027-0.037-0.044-0.117c0.015-0.106-0.028 0.009-0.057 0.045-0.032 0.04-0.007-0.009 0.033-0.033 0.003-0.003 0.027-0.018 0.016-0.013l0.011-0.008-0.021 0.008c0.036 0.062-0.036-0.16-0.057-0.294l0.05-0.063-0.002-0.028-0.065 0.052-0.04 0.234-0.032 0.462-0.01 0.058c0.596 0.324-0.814-0.403-0.67-0.328l-0.003 0.005-0.005 0.014-0.006 0.03c-0.001 0.019 0 0.038 0.004 0.057 0.014 0.041-0.021 0.071-0.011 0.107-0.012 0.069-0.018 0.136-0.047 0.196-0.077 0.25-0.279 0.511-0.512 0.65-0.115 0.07-0.23 0.117-0.367 0.146-0.04-0.006-0.077-0.002-0.113 0.012-0.051 0.012-0.17-0.004-0.253 0.006-0.09 0.016-0.179 0.018-0.266-0.001-0.086-0.017-0.176 0.001-0.261-0.015-0.344-0.043-0.671-0.148-0.999-0.271-0.322-0.142-0.615-0.349-0.898-0.566-0.544-0.469-0.938-1.07-1.14-1.74-0.017-0.087-0.04-0.17-0.07-0.253-0.021-0.088-0.054-0.183-0.075-0.271h-2v-0.2c0-0.134 0.026-0.267 0.012-0.398-0.006-0.267 0.054-0.525 0.048-0.788 0.069-0.253 0.068-0.521 0.146-0.771 0.243-1.01 0.706-1.99 1.39-2.82 0.696-0.813 1.57-1.47 2.53-1.91 0.985-0.424 1.98-0.579 3.44-0.561 1.35 0.033 2.67 0.328 3.92 0.867 2.49 1.07 4.58 3.17 5.63 5.69 0.104 0.328 0.218 0.648 0.346 0.968 0.083 0.331 0.156 0.668 0.253 0.998 0.067 0.341 0.09 0.689 0.156 1.03 0.058 0.345 0.03 0.785 0.061 1.17 0.031 1.6-0.107 3.21-0.599 4.74-0.213 1.06-0.708 2.94-2.16 5.03l-0.562 0.804c-0.211 0.262-0.45 0.514-0.678 0.785-0.115 0.136-0.23 0.274-0.349 0.412-0.132 0.125-0.267 0.251-0.402 0.379-0.277 0.249-0.537 0.532-0.836 0.781-1.2 1-2.65 1.89-4.32 2.58-0.429 0.138-0.838 0.356-1.29 0.46-0.451 0.12-0.907 0.241-1.37 0.363-0.479 0.063-0.959 0.141-1.45 0.226-0.508 0.063-1.08 0.055-1.62 0.097-2.2 0.069-4.53-0.095-6.8-0.79-2.28-0.653-4.53-1.68-6.59-3.08-2.08-1.39-3.9-3.22-5.4-5.28s-2.65-4.39-3.4-6.83c-0.146-0.622-0.303-1.24-0.467-1.86-0.113-0.629-0.18-1.27-0.284-1.9l-0.074-0.473c-0.017-0.162-0.014-0.338-0.021-0.505l-0.039-1.01-0.046-1.02c-0.02-0.337-0.042-0.673-0.003-1 0.184-5.35 1.67-10.5 4.22-14.6 2.48-4.13 5.71-7.3 8.85-9.41 3.15-2.14 6.16-3.22 8.36-3.92 0.548-0.14 1.09-0.279 1.64-0.419 1.22-0.359 2.53-0.453 3.84-0.653l0.495-0.072 0.523-0.019 1.06-0.033c0.708-0.031 1.42-0.062 2.13-0.094 1.42 0.015 2.86 0.157 4.3 0.197 1.41 0.249 2.85 0.397 4.24 0.673 5.59 1.15 10.7 3.47 14.6 5.86 3.74 2.03 7.21 4.81 10.3 8.07-0.897-1.9-2.03-3.48-2.92-4.97 3.26 3.31 5.55 7.33 6.75 8.69 0.182 0.251 0.355 0.491 0.519 0.722 0.143 0.239 0.277 0.468 0.405 0.684 0.26 0.431 0.497 0.813 0.713 1.15 0.433 0.669 0.783 1.15 1.06 1.48 0.531 0.662 0.75 0.7 0.886 0.29 0.155-0.416 0.025-1.2-0.107-2.19-0.161-0.971-0.318-2.15-0.534-3.19-0.503-1.4-0.064-1.36 0.277-1.49 0.337-0.139 0.578-0.445-0.406-2.66 0.867 1.49 1.54 2.6 2.16 3.73 0.542 1.18 1.08 2.36 1.81 3.93 0.321 0.087-0.836-2.33-1.95-4.48-1.26-2.06-2.36-3.94-1.37-3.14 0.389 0.75 0.816 1.5 1.27 2.26 0.22 0.381 0.47 0.75 0.681 1.14 0.2 0.398 0.401 0.797 0.604 1.2 0.409 0.804 0.818 1.61 1.22 2.41 0.217 0.397 0.374 0.819 0.524 1.24 0.15 0.419 0.3 0.832 0.447 1.24 0.061-0.342-0.108-1.26-0.493-2.39-0.441-1.11-1.04-2.46-1.62-3.76-1.32-2.52-2.67-4.78-2.21-4.76 0.282 0.392 0.696 1.16 1.17 2.09 0.452 0.943 1.06 1.99 1.45 3.11 0.431 1.1 0.861 2.14 1.26 2.93 0.204 0.389 0.378 0.725 0.515 0.986 0.148 0.254 0.291 0.413 0.424 0.453 0.053 0.017 0.02-0.183-0.069-0.518-0.047-0.167-0.099-0.372-0.178-0.592-0.092-0.218-0.193-0.457-0.301-0.711-0.439-1.01-1-2.23-1.38-3.04l1.77 3.47c0.505 1.09 0.896 2.13 1.3 3.04 0.848 1.8 1.29 3.24 1.68 4 0.379 0.768 0.621 0.886 0.672 0.16 0.026-0.362 0.004-0.938-0.077-1.75-0.043-0.822-0.284-1.84-0.611-3.12 0.144 0.432 0.295 0.887 0.453 1.36 0.073 0.236 0.157 0.475 0.225 0.723 0.055 0.253 0.108 0.507 0.164 0.768 0.211 1.03 0.434 2.11 0.656 3.2 0.266 1.08 0.329 2.2 0.473 3.26 0.131 1.07 0.272 2.1 0.432 3.04 0.005-0.004 0.006-0.02 0.01-0.03-0.098-0.951-0.234-2.25-0.367-3.53-0.071-0.642-0.115-1.28-0.211-1.86-0.125-0.576-0.24-1.1-0.335-1.54l0.374 1.6c0.093 0.54 0.153 1.08 0.231 1.62l0.427 3.25c0.08-0.354 0.15-0.753 0.217-1.18-0.058-0.82-0.123-1.64-0.204-2.48-0.042-0.416-0.081-0.837-0.136-1.26-0.092-0.411-0.185-0.827-0.278-1.25 0.396 1.41 0.492 2.88 0.711 4.34 0.069-0.563 0.129-1.17 0.179-1.82 0.041-0.645 0.118-1.34 0.056-2.04-0.164-1.33-0.325-2.65-0.48-3.93-0.057-0.65-0.192-1.27-0.326-1.87-0.132-0.609-0.261-1.2-0.385-1.78-0.44-2.33-1.18-4.25-1.8-5.59-2.52-5.4-5.94-10.4-10.1-14.8-4.18-4.31-9.08-7.91-14.4-10.7-5.36-2.73-11.2-4.7-17.2-5.47l-1.12-0.18-1.13-0.086-2.26-0.16c-0.753-0.045-1.51-0.111-2.26-0.13l-2.26 0.065-2.26 0.08c-0.378 0.021-0.748 0.016-1.13 0.059l-1.16 0.15-2.33 0.321c-0.386 0.06-0.776 0.101-1.16 0.181l-5 2.1z"/>
	<path d="m134 78.7c0.157-0.298-0.486-0.917 0.765-0.579 1.91 0.688 3.49 1.67 4.92 2.81 1.45 1.12 2.8 2.29 4.43 3.44 0.186-0.074 0.377-0.154 0.567-0.231 2.27 2.17 4.26 4.76 5.98 7.55 1.81 2.4 3.32 5.02 4.54 7.78 1.22 2.75 2.16 5.63 2.73 8.59 0.171-0.187 0.336-0.295 0.502 0.294 0.548 2.48 0.652 6.03 0.251 9.63-0.012 0.535-0.021 1.07-0.076 1.6 0.061 0.422 0.234 0.558 0.34 0.64-0.24 1.64-0.616 3.07-0.999 4.38-1.76 8.8-6.52 17.4-14 23.6-7.4 6.24-17.5 10.1-28.3 9.85-2.29 0.079-4.6-0.041-6.88-0.385-2.28-0.335-4.53-0.854-6.65-1.63-3.13-1.17-6.51-3.03-9.5-5.34-3.02-2.29-5.66-4.98-7.69-7.5-0.202 0.494-1.05 0.154-2.17-0.661-1.1-0.825-2.48-2.13-3.71-3.5-2.49-2.71-4.49-5.64-4.66-3.66-0.995-2.18-2.02-4.98-2.72-7.32-0.694-2.34-1.14-4.18-1.46-4.31-0.459-0.197-0.93-0.565-1.46-1.22-0.261-0.325-0.541-0.72-0.814-1.2-0.261-0.485-0.528-1.06-0.801-1.74-1.02-2.7-2.1-7.16-1.45-14.2 0.317-2.73 1.31-6.08 2.43-8.88 0.262-0.709 0.549-1.37 0.83-2 0.278-0.619 0.513-1.21 0.758-1.72 0.49-1.02 0.846-1.83 0.976-2.3 0.179-0.648 0.033-0.659-0.277-0.351-0.31 0.313-0.828 1.1-1.33 1.84-1 1.51-1.9 3.12-1.57 1.57-4.1 9.6-5.32 20.4-3.53 30.6 1.75 10.2 6.39 19.8 13.3 27.5 1.69 1.94 3.58 3.71 5.52 5.4 1.98 1.65 4.05 3.19 6.23 4.57 2.19 1.36 4.43 2.62 6.79 3.66 2.33 1.08 4.76 1.98 7.24 2.72 9.91 2.99 20.7 3.11 30.8 0.338 1.69-0.587 4.61-1.52 8.24-3.28 3.61-1.76 7.98-4.28 12.3-7.97 2.15-1.84 4.31-3.93 6.34-6.32 2.02-2.39 3.93-5.04 5.62-7.93 3.38-5.75 5.91-12.5 7-19.5 1.11-7.06 0.781-14.4-0.843-21.2-1.6-6.8-4.49-13-8-18.2-1.75-2.59-3.66-4.92-5.6-7-1.96-2.06-3.96-3.84-5.89-5.39-3.9-3.06-7.53-5.1-10.2-6.45-0.676-0.299-1.34-0.62-2.02-0.894-6.06-2.7-13.4-4.35-20.5-4.34-7.12-0.04-13.9 1.57-19 3.77-4.65 2.11-8.97 4.98-12.7 8.33 2.08-1.1 4.06-1.96 5.82-2.56-4.44 2.33-8.37 5.54-9.53 7.09-1.83 1.93-2.75 3.27-3.16 4.05-0.408 0.783-0.302 1.02 0.11 0.938 0.416-0.079 1.13-0.483 1.97-0.963 0.875-0.451 1.82-1.04 2.77-1.42 1.21-0.716 1.27-0.276 1.47 0.024 0.207 0.31 0.535 0.443 2.33-0.629-2.33 1.86-3.43 2.89-5.48 5.07 0.043 0.153 0.438-0.206 0.993-0.8 0.592-0.555 1.32-1.38 2.09-2.08 0.756-0.714 1.5-1.36 2-1.69 0.498-0.335 0.727-0.374 0.468 0.123-2.35 1.63-4.41 4.12-6.29 6.37 0.588-0.181 2.3-2.04 4.04-3.61 1.75-1.56 3.5-2.82 3.54-2.4-0.275 0.276-0.841 0.688-1.54 1.17-0.667 0.511-1.49 1.08-2.22 1.69-1.49 1.22-2.7 2.55-2.56 3.04 0.06 0.192 2-1.93 3.06-2.9-3.1 3.18-4.84 6.17-5.26 7.43-0.205 0.642-0.098 0.856 0.377 0.546 0.465-0.317 1.32-1.14 2.71-2.49-1.71 2.03-4.12 5.02-5.26 7.66 0.005 0 0.015-0.008 0.022-0.014 0.677-1.25 2.02-3.3 2.78-4.36-0.905 1.32-1.71 2.72-2.46 4.14 0.232-0.166 0.476-0.359 0.726-0.568 0.32-0.504 0.647-1 0.998-1.5 0.349-0.489 0.651-1.02 1.02-1.52-0.308 0.426-0.563 0.888-0.841 1.34-0.272 0.45-0.562 0.891-0.801 1.37 0.613-0.566 1.35-1.18 2.06-1.88 2.48-2.82 5.39-4.8 6.76-6.12 5.62-5.32 12.8-8.9 20.4-10.3 8-4 16-3.1 23-0.2z"/>
	<path d="m179 69.9c-0.033-0.332-0.38-0.625 0.071-0.838 1.44-0.51 2.78 0.445 4.23-0.064l0.036-0.55c0.59 0.05 1.2 0.099 1.81 0.149l0.231 0.021c0.068 0.009 0.186 0.013 0.161 0.031l0.033 0.098c0.019 0.066 0.031 0.13 0.036 0.194 0.058-0.086 0.176-0.23 0.479-0.455 0.157-0.217 0.299-0.417 0.386-0.504 0.244-0.177 0.24 0.015 0.303 0.063l0.188-0.118c0.235-0.198 0.446-0.377 0.593-0.503 0.077 0.008 0.094 0.059 0.081 0.117 0.389-0.206 0.832-0.428 1.36-0.661 1.19-0.17 1.67 1.13 0.766 4.8-0.335 1.58-0.672 3.15-1.21 4.55-0.917 2-2.62 4.24-3.74 6.06 1.82 0.668 0.02 5.65 2.21 5.71-0.749 1.21-1.87 3.03-1.46 3.4 1.24 1.1 2.3 2.98 1.26 6.74-0.542 1.4-2.27 3.02-2.24 3.64 0.038 0.971 1.95-1.09 1.98-0.119 3-4.62 5.68-9.31 8.29-14 1.3-2.37 2.6-4.74 3.92-7.13l0.99-1.79c0.471-0.838 0.944-1.68 1.42-2.52l4.06-7.08c1.12-2.62 5.6-10.9 10.8-20.3-8.4 1.23-17.4 2.48-25.2 3.52-1.96 0.255-3.84 0.504-5.63 0.737-1.24 0.153-2.4 0.299-3.48 0.433-1.67 0.194-3.06 0.339-4.04 0.409l-0.584 0.101c-3.55 0.358-7.82 1.06-10.7 2.18-1.31 0.623-2.64 1.35-3.95 2.05 0.685 0.226 1.32 0.459 1.88 0.7-1.42 0.144-2.84 0.286-3.33 0.7-2.9 1.2-1.07 1.92 0.251 3.06 0.906 0.453-0.105 1.47 1.27 1.87-0.942 0.097-1.42 0.143-2.36 0.24-0.038 0.549 2.86-0.652 2.32 0.309-0.932-0.085-1.9 0.376-2.85 0.471 0.42 0.686 3.29-0.152 3.24 0.578-0.486 0.232-2.77-0.626-2.84 0.288-0.013 0.184 0.932 0.088 1.4 0.039-2.86 0.652-4.35 1.71-1.57 2.34-0.922 0.094-2.27-0.115-3.22 0.134 0 0.005 0.006 0.011 0.008 0.015 0.489-0.033 1.35 0.042 1.8-0.004l-1.66 0.168c0.103 0.114 0.218 0.227 0.337 0.333 0.426 0.058 0.852 0.092 1.28 0.047l-1.1 0.114c0.313 0.253 0.665 0.492 1.04 0.711 1.38 0.401 2.74 1.08 3.45 1.01 10-0.5 16-1 22-1.7z"/>
	<path d="m44.2 108c-0.146-0.298 0-0.729-0.499-0.675-1.5 0.32-2.15 1.84-3.65 2.16l-0.317-0.447c-0.479 0.348-0.971 0.708-1.47 1.07-0.109 0.086-0.278 0.198-0.343 0.265l0.022 0.1c0.019 0.067 0.042 0.13 0.07 0.187-0.093-0.043-0.269-0.106-0.644-0.137-0.249-0.106-0.475-0.204-0.592-0.23-0.302-0.022-0.2 0.139-0.228 0.212l-0.221-0.003c-0.307-0.047-0.58-0.089-0.77-0.119-0.062 0.046-0.05 0.098-0.008 0.144-0.438 0.023-0.931 0.069-1.5 0.146-0.559 0.239-0.761 0.701-0.486 1.44 0.136 0.369 0.389 0.805 0.774 1.31 0.192 0.256 0.416 0.527 0.674 0.818l0.414 0.447 0.226 0.235c0.091 0.091 0.113 0.14 0.303 0.279 1.11 1.17 2.23 2.34 3.42 3.25 1.83 1.23 4.46 2.26 6.37 3.23-1.2 1.52 2.94 4.83 1.11 6.03 1.27 0.647 3.19 1.62 3.03 2.14-0.481 1.58-0.405 3.74 2.46 6.41 1.2 0.909 3.52 1.4 3.82 1.94 0.477 0.849-2.23 0.084-1.76 0.932-4.98-2.38-9.73-4.99-14.4-7.67l-7.08-4.05-1.78-1.01c-0.823-0.457-1.65-0.917-2.48-1.38l-7.18-3.93c-2.34-1.66-10.5-6.4-19.9-11.7 7.82-3.35 16.2-6.98 23.4-10.2 1.81-0.804 3.55-1.58 5.2-2.32 1.12-0.508 2.19-0.99 3.17-1.43 1.53-0.708 2.8-1.32 3.67-1.76l0.554-0.22c3.22-1.55 7.24-3.18 10.3-3.75 1.45-0.154 2.96-0.229 4.46-0.321-0.468 0.555-0.892 1.09-1.24 1.58 1.29-0.621 2.58-1.24 3.22-1.15 3.11-0.494 1.92 1.08 1.38 2.74-0.538 0.859 0.856 1.2-0.113 2.26 0.857-0.411 1.29-0.617 2.15-1.03 0.32 0.447-2.79 0.939-1.83 1.48 0.753-0.561 1.82-0.677 2.68-1.09-0.003 0.804-2.9 1.59-2.47 2.19 0.537-0.057 2.04-1.99 2.58-1.24 0.106 0.15-0.753 0.561-1.18 0.769 2.79-0.94 4.68-0.813 2.64 1.17 0.7 2.5 0.8 1.6 2.8 1.4v0.014c0 0.228-1.2 0.743-1.61 0.938l1.47-0.727c-0.028 0.152-0.087 0.307-0.132 0.465-0.335 0.27-0.689 0.52-1.08 0.707l0.997-0.479c-0.133 0.382-0.311 0.769-0.523 1.15-0.969 1.07-1.78 2.36-2.42 2.67-5.2 3-10.4 5-15.6 8z"/>
	<path d="m95.4 43c-0.326-0.071-0.71 0.167-0.773-0.328-0.039-1.53 1.28-2.51 1.24-4.04l-0.509-0.203c0.228-0.546 0.458-1.56 0.695-2.13 0.058-0.13 0.14 0.139 0.173-0.861h0.104c0.069 0 0.14 0.47 0.202 0.479-0.065-0.076-0.163-0.005-0.282-0.358-0.16-0.221-0.306-0.301-0.36-0.407-0.093-0.287 0.089-0.169 0.154-0.214l-0.055-0.185c-0.119-0.286-0.223-0.524-0.297-0.701 0.032-0.073 0.084-0.066 0.138-0.036-0.079-0.44-0.152-0.938-0.212-1.53 0.199-1.19 1.61-1.21 4.76 0.727 1.4 0.805 2.79 1.61 3.95 2.56 1.62 1.49 3.23 3.8 4.61 5.42 1.2-1.52 5.37 1.72 6.11-0.337 0.92 1.08 2.3 2.71 2.78 2.44 1.42-0.836 3.54-1.27 6.79 0.886 1.16 0.946 2.17 3.09 2.76 3.26 0.936 0.264-0.435-2.19 0.499-1.92-3.46-4.28-7.09-8.26-10.8-12.2-1.85-1.97-3.7-3.94-5.56-5.92l-1.4-1.49-2-2.18c-1.82-2.01-3.64-4.02-5.47-6.04-2.14-1.87-8.59-8.64-15.9-16.5-1.43 8.37-3.02 17.3-4.45 25.1-0.361 1.95-0.71 3.82-1.04 5.6-0.235 1.22-0.456 2.37-0.661 3.42-0.332 1.65-0.627 3.02-0.86 3.98l-0.085 0.588c-0.753 3.48-1.4 7.76-1.24 10.9 0.188 1.44 0.467 2.92 0.728 4.39 0.428-0.582 0.848-1.12 1.25-1.58-0.301 1.4-0.602 2.78-0.362 3.39 0.247 3.13 1.5 1.62 2.99 0.706 0.712-0.723 1.36 0.554 2.17-0.632-0.2 0.925-0.3 1.39-0.501 2.32 0.511 0.205 0.263-2.92 1.01-2.11-0.369 0.86-0.231 1.92-0.432 2.85 0.779-0.188 0.872-3.18 1.55-2.9 0.069 0.531-1.45 2.44-0.603 2.78 0.17 0.068 0.371-0.859 0.471-1.32-0.263 2.92 0.282 4.39 1.73 1.95-0.196 0.908-0.856 1.84-0.87 2.84h0.016c0.16 0 0.458-1 0.553-1.44l-0.35 1.76c0.14-0.063 0.28-0.072 0.421-0.151 0.185-0.389 0.349-0.747 0.441-1.17l-0.235 1.1c0.338-0.218 0.675-0.473 0.999-0.767 0.811-1.18 1.88-2.27 2.03-2.96 1.3-5.9 2.7-11.5 3.8-17.1z"/>
	<path d="m175 162c-0.059 0.328-0.429 0.593 0.006 0.842 1.4 0.624 2.82-0.225 4.22 0.4l-0.006 0.544c0.593-0.002 1.2-0.002 1.82-0.011l0.465-0.006c0.114-0.002 0.048-0.019 0.077-0.03l0.021-0.043c0.025-0.065 0.042-0.129 0.054-0.189 0.048 0.091 0.154 0.244 0.437 0.488 0.138 0.232 0.259 0.443 0.339 0.536 0.228 0.194 0.244 0.003 0.31-0.039l0.176 0.132c0.219 0.219 0.412 0.414 0.547 0.549 0.079-0.003 0.1-0.051 0.093-0.111 0.378 0.244 0.816 0.504 1.34 0.788 1.17 0.258 1.74-1.02 1.13-4.73-0.212-1.6-0.426-3.21-0.859-4.64-0.759-2.07-2.28-4.45-3.26-6.36 1.86-0.521 0.457-5.64 2.64-5.52-0.65-1.27-1.63-3.18-1.19-3.52 1.32-0.994 2.53-2.79 1.77-6.63-0.433-1.44-2.03-3.2-1.96-3.82 0.114-0.966 1.86 1.25 1.97 0.281 2.64 4.86 4.94 9.76 7.18 14.7 1.11 2.47 2.23 4.95 3.35 7.44l0.847 1.87c0.41 0.881 0.818 1.76 1.23 2.64 1.16 2.46 2.33 4.92 3.5 7.4 0.91 2.7 4.7 11.3 9.16 21-8.32-1.9-17.2-3.87-25-5.53-1.94-0.412-3.82-0.813-5.59-1.19-1.2-0.243-2.33-0.476-3.37-0.689-1.66-0.33-3.05-0.585-4.02-0.733l-0.577-0.147c-3.52-0.64-7.73-1.68-10.5-3.02-1.26-0.727-2.53-1.55-3.8-2.36 0.704-0.172 1.36-0.355 1.94-0.548-1.41-0.257-2.81-0.515-3.28-0.965-2.81-1.43-0.923-2 0.492-3.03 0.942-0.377 0.009-1.47 1.42-1.76-0.937-0.17-1.4-0.256-2.34-0.425 0.005-0.553 2.81 0.877 2.35-0.123-0.938 0.01-1.87-0.525-2.81-0.695 0.475-0.649 3.28 0.414 3.29-0.318-0.468-0.271-2.82 0.401-2.81-0.514 0.003-0.185 0.94-0.012 1.41 0.073-2.81-0.879-4.21-2.05-1.39-2.46-0.915-0.167-2.28-0.068-3.21-0.394l0.01-0.011c0.486 0.07 1.35 0.065 1.8 0.147l-1.65-0.299c0.111-0.106 0.235-0.209 0.363-0.309 0.431-0.021 0.858-0.021 1.29 0.058l-1.09-0.201c0.331-0.228 0.702-0.439 1.1-0.627 1.41-0.29 2.82-0.859 3.53-0.732 9 2 14 3 20 4z"/>
	<path d="m95.7 185c0.222 0.249 0.674 0.279 0.434 0.72-0.875 1.27-2.52 1.28-3.4 2.55l0.292 0.468c-0.508 0.309-1.03 0.623-1.56 0.946l-0.4 0.237c-0.096 0.046-0.076-0.021-0.12-0.025-0.053-0.041-0.102-0.088-0.145-0.135 0.005 0.104-0.006 0.288-0.118 0.646 0.003 0.271 0.008 0.514-0.012 0.634-0.093 0.286-0.205 0.131-0.285 0.131l-0.081 0.205c-0.072 0.3-0.137 0.566-0.181 0.752-0.068 0.04-0.112 0.012-0.137-0.046-0.194 0.401-0.429 0.847-0.726 1.36-0.432 0.419-0.937 0.426-1.51-0.11-0.287-0.27-0.59-0.67-0.913-1.22-0.16-0.273-0.325-0.586-0.494-0.936l-0.256-0.552-0.13-0.298c-0.046-0.126-0.082-0.148-0.139-0.38-0.655-1.48-1.31-2.96-1.69-4.42-0.437-2.17-0.38-4.99-0.542-7.14-1.86 0.526-3.34-4.58-5.14-3.34-0.108-1.43-0.271-3.57-0.819-3.62-1.64-0.161-3.61-1.06-4.98-4.74-0.381-1.45 0.056-3.8-0.324-4.28-0.603-0.767-0.933 2.04-1.53 1.27 0.287 5.52 0.883 10.9 1.55 16.3 0.341 2.7 0.683 5.39 1.03 8.11l0.253 2.04c0.108 0.946 0.219 1.89 0.328 2.84 0.293 2.7 0.586 5.42 0.882 8.15 0.634 2.79 1.88 12.1 3.18 22.8 6.11-5.96 12.7-12.3 18.4-17.8l4.15-3.93 2.51-2.35c1.25-1.15 2.3-2.09 3.05-2.72l0.416-0.428c2.67-2.39 5.73-5.48 7.42-8.1 0.701-1.28 1.35-2.65 2.01-4-0.689 0.223-1.35 0.41-1.94 0.547 1.07-0.953 2.14-1.91 2.3-2.54 1.65-2.69-0.257-2.19-2-2.33-1 0.17-0.773-1.25-2.13-0.76 0.71-0.634 1.07-0.952 1.78-1.59-0.292-0.468-1.94 2.22-2.07 1.12 0.808-0.484 1.33-1.43 2.04-2.07-0.744-0.303-2.59 2.07-2.98 1.45 0.259-0.476 2.62-1.13 2.14-1.91-0.098-0.157-0.809 0.479-1.16 0.799 1.94-2.22 2.53-3.96-0.093-2.82 0.694-0.62 1.91-1.25 2.54-2.02l-0.015-0.006c-0.377 0.318-1.12 0.765-1.46 1.07l1.25-1.12c-0.151-0.032-0.309-0.054-0.47-0.072-0.379 0.207-0.745 0.432-1.07 0.723l0.83-0.743c-0.404-0.022-0.83-0.007-1.27 0.042-1.36 0.486-2.86 0.743-3.4 1.22-7 3-11.1 7-15.3 11z"/>
</g>
<g fill="#FCF3EA">
	<path d="m152 226c0-1.66-0.267-11.4-0.374-13.9 0-0.534-0.321-5.24-0.374-5.82v-0.214c0-1.23 1.39-1.55 2.46-1.55 7.37 0 9.99 5.29 9.99 11.4 0 4.92-1.87 7.91-5.29 10.4 6.15 2.72 7.64 11.4 7.64 17.4 0 0.962-0.588 1.34-1.55 1.34-0.641 0-0.908 0-1.18-0.855-0.267-4.01-1.28-15.3-7.48-15.3-0.054 0-0.428 0.054-0.535 0.054-0.588 6.04-0.107 12.1-0.481 18.2-0.694 0.962-2.19 1.02-2.83 0-1-1-1-16-1-19zm3-1c3.79-0.748 5.88-4.92 5.88-8.28 0-2.83-1.18-8.71-5.02-8.71-0.214 0-1.87 0-1.87 0.428l1 17z"/>
	<path d="m175 238l-0.321 0.321-0.908 6.04c-0.107 0.802-0.054 3.1-1.6 3.1-0.694 0-1.18-1.39-1.18-1.92 5.56-38.7 5.61-38.8 5.61-38.8 0.267-1.02 0.641-2.51 1.98-2.51 0.588 0 1.34 0.268 1.66 0.802l0.427 1.12c3.1 12.2 4.54 24.8 5.98 37.4l0.321 3.47c0 0.054-0.054 0.054-0.054 0.107-0.374 1.02-0.588 1.44-1.6 1.44h-0.16c-0.321 0-0.855 0-0.909-0.374l-1.34-10.2h-8zm1-3l6.68 0.16-3.58-25-3 25z"/>
	<path d="m192 211c0-0.962 0.908-1.87 1.87-1.87h8.44c0.321 0 1.39 0.802 1.44 1.07 0.054 0.106 0.054 0.16 0.054 0.267 0 1.07-1.44 1.55-2.3 1.55h-6.41l0.267 17.7 5.77-0.855h0.267c2.51 0 1.55 2.46-0.588 2.78l-5.34 0.802-0.16 13.9c0.481 0.054 2.3 0.054 2.78 0.054 3.58 0 6.2-1.23 6.36 1.23 0.107 1.82-11.9 1.6-11.9 0.588v-38z"/>
	<path d="m227 222c0.213-8.6 0.908-14.8 2.3-14.8 0.053 0 0.16 0 0.213 0.054 0.267 0.267 1.5 0.427 1.82 1.76 0.962 3.9 2.4 11 5.56 15.5 0.374-0.321 2.4-3.85 3.47-5.77l0.267-0.428c1.98-3.58 3.31-6.14 4.6-9.62 0.32-0.642 0.748-0.962 1.55-0.962 0.748 0.054 1.12 0.268 1.82 0.802-0.374 11.9-0.16 23.8-0.427 35.6l-0.053 2.56c-0.268 0.641-0.855 1.28-1.71 1.28-0.428 0-0.962-0.428-1.23-0.748l0.054-3.15c0.214-9.67-0.214-19.3 0.16-29-1.28 2.3-2.56 4.6-3.69 7-0.481 0.802-2.67 5.18-3.15 6.25-0.32 0.694-1.76 2.35-2.56 0.534-5.34-12.1-5.5-12.1-5.56-12.1-1.18 9.67-1.28 19.6-1.39 29.3-0.107 0.588-0.641 1.02-1.12 1.02-0.32 0-1.28-0.374-1.5-0.748l1-24z"/>
	<path d="m254 211c0-0.962 0.908-1.87 1.87-1.87h8.44c0.321 0 1.39 0.802 1.44 1.07 0.054 0.106 0.054 0.16 0.054 0.267 0 1.07-1.44 1.55-2.3 1.55h-6.41l0.267 17.7 5.77-0.855h0.267c2.51 0 1.55 2.46-0.588 2.78l-5.34 0.802-0.16 13.9c0.481 0.054 2.3 0.054 2.78 0.054 3.58 0 6.2-1.23 6.36 1.23 0.107 1.82-11.9 1.6-11.9 0.588v-38z"/>
	<path d="m273 249c-0.053 0-0.694-27.6-0.694-31.2 0-1.02-0.642-9.19-0.695-10.2v-0.374c0-0.428 0-0.588 0.374-0.962 0.16-0.054 0.801-0.107 1.02-0.107 0.962 0 1.39-0.053 1.71 1.12 0.481 2.08 0.267 3.37 0.321 5.45 0.267 10.9 0.374 22 1.02 33h0.374c2.24 0 4.38-0.748 6.68-0.748 0.855 0 1.82 0.214 1.82 1.28 0 0.588-0.321 1.07-1.07 1.18l-10 2z"/>
	<path d="m289 210c-3.31 0.213-4.81 0.16-4.92-0.749 0.107-1.82 0.107-2.46 5.66-2.14h4.49c1.18 0.053 3.15 0.214 3.15 1.76 0 0.481-0.588 1.02-1.07 1.02h-4.49l1.02 33.9c0 0.48-1.07 0.748-1.39 0.748s-1.39-0.268-1.39-0.748l-2-34z"/>
	<path d="m310 206c9.56 1.07 8.18 23.8 7.64 30.9-0.374 3.9-2.35 10.7-7.7 10.7-9.46 0-9.89-16.1-9.89-22.4 0-7 1-20 10-20zm-7 19c0 15.7 2.88 19.9 6.68 19.9 5.24 0 5.29-13.6 5.29-16.9v-0.214c0-4.11-1.12-19.1-6.2-19.1-4.01 0-5.72 8.92-5.72 11.6v4z"/>
	<path d="m324 210c-0.107-2.14 2.83-3.42 3.95-0.32l10.9 29.6c0.053-2.35 0.481-15.5 0.801-20.7 0.161-3.21-0.053-6.47 0.642-9.46 0-0.588 0.587-0.588 1.39-0.588 1.28 0.054 1.39 0.107 1.34 1.28-0.16 5.56-0.962 11.1-1.18 16.7-0.107 3.1-0.641 17.9-0.641 21-0.374 1.12-2.03 0.481-2.46-0.428-0.535-1.12-0.962-2.19-12.3-32.5l-0.374 32.8c0 1.6-2.72 1.44-2.72 0.32v-39z"/>
	<path d="m351 218c1.44 0 2.4 1.12 2.4 2.62 0 1.18-1.12 1.34-2.14 1.34-1.34 0-2.08-0.855-2.08-2.35 0-1 1-2 2-2zm0 27c1.44 0 2.4 1.12 2.4 2.62 0 1.18-1.12 1.34-2.14 1.34-1.34 0-2.08-0.854-2.08-2.35 0-1 1-2 2-2z"/>
	<path d="m378 207h0.214c9.62 0.428 11 11.7 11 19.5 0 0.802-0.053 1.6-0.053 2.3-0.267 10.2-3.15 18.3-12.2 18.3-0.748 0-1.5-0.053-2.3-0.214 0 0 0.053-5.98 0.107-8.44 0.16-6.84 0.427-13.3 0.694-20.3 0.054-0.908 0.161-8.71 0.214-9.72l0.054-0.321c-1-1 1-1 2-1zm-1 38c0.428 0.053 0.534 0.053 0.588 0.053 6.79 0 7.91-11.4 8.12-15.8 0.268-5.02 0.054-18.4-7.48-19l-2 35z"/>
	<path d="m394 211c0-0.962 0.908-1.87 1.87-1.87h8.44c0.321 0 1.39 0.802 1.44 1.07 0.054 0.106 0.054 0.16 0.054 0.267 0 1.07-1.44 1.55-2.3 1.55h-6.41l0.267 17.7 5.77-0.855h0.267c2.51 0 1.55 2.46-0.588 2.78l-5.34 0.802-0.16 13.9c0.481 0.054 2.3 0.054 2.78 0.054 3.58 0 6.2-1.23 6.36 1.23 0.107 1.82-11.9 1.6-11.9 0.588v-38z"/>
	<path d="m411 206c0.32-0.428 2.03-1.07 2.46-0.641 0.214 0.106 0.962 0.801 1.02 1.02l4.54 32.9c1.76-9.78 3.63-22.1 5.34-31.9 0-1.82 0.748-2.08 1.71-2.08 0.802 0 1.34 0.106 1.71 1.07-2.3 8.82-3.63 18-5.13 27l-2.08 13.7c-0.374 0.962-0.908 1.02-1.66 1.02-0.588 0-1.18 0-1.39-0.695-3-13-4-27-7-41z"/>
	<path d="m433 211c0-0.962 0.908-1.87 1.87-1.87h8.44c0.321 0 1.39 0.802 1.44 1.07 0.054 0.106 0.054 0.16 0.054 0.267 0 1.07-1.44 1.55-2.3 1.55h-6.41l0.267 17.7 5.77-0.855h0.267c2.51 0 1.55 2.46-0.588 2.78l-5.34 0.802-0.16 13.9c0.481 0.054 2.3 0.054 2.78 0.054 3.58 0 6.2-1.23 6.36 1.23 0.107 1.82-11.9 1.6-11.9 0.588v-38z"/>
	<path d="m452 249c-0.053 0-0.694-27.6-0.694-31.2 0-1.02-0.642-9.19-0.695-10.2v-0.374c0-0.428 0-0.588 0.374-0.962 0.16-0.054 0.801-0.107 1.02-0.107 0.962 0 1.39-0.053 1.71 1.12 0.481 2.08 0.267 3.37 0.321 5.45 0.267 10.9 0.374 22 1.02 33h0.374c2.24 0 4.38-0.748 6.68-0.748 0.855 0 1.82 0.214 1.82 1.28 0 0.588-0.321 1.07-1.07 1.18l-10 2z"/>
	<path d="m473 206c9.56 1.07 8.18 23.8 7.64 30.9-0.374 3.9-2.35 10.7-7.69 10.7-9.46 0-9.89-16.1-9.89-22.4 0-7 0-20 10-20zm-7 19c0 15.7 2.88 19.9 6.68 19.9 5.24 0 5.29-13.6 5.29-16.9v-0.214c0-4.11-1.12-19.1-6.2-19.1-4.01 0-5.72 8.92-5.72 11.6v4z"/>
	<path d="m486 236c0-4.27 0.267-24.3 0.374-28.5 0.268-0.748 1.6-0.642 2.24-0.642 5.56 0 9.56 4.92 9.56 10.3 0 5.77-3.95 12.2-9.24 14.7-0.053 0.854-0.267 5.02-0.267 5.88-0.054 1.82-0.054 10 0 11.8-0.321 0.534-1.12 0.694-1.66 0.694-0.48 0-0.588-0.054-1.02-0.32v-15zm3-7c0.374 0 0.854-0.107 1.12-0.375 3.1-2.83 4.92-6.09 4.92-10.4 0-2.78-1.98-7.8-5.66-7.8v18z"/>
	<path d="m504 211c0-0.962 0.908-1.87 1.87-1.87h8.44c0.32 0 1.39 0.802 1.44 1.07 0.054 0.106 0.054 0.16 0.054 0.267 0 1.07-1.44 1.55-2.3 1.55h-6l0.267 17.7 5.77-0.855h0.267c2.51 0 1.55 2.46-0.587 2.78l-5.34 0.802-0.161 13.9c0.481 0.054 2.3 0.054 2.78 0.054 3.58 0 6.2-1.23 6.36 1.23 0.107 1.82-11.9 1.6-11.9 0.588v-38z"/>
	<path d="m522 245c0-12 0.428-24.2 0.748-36.2 0.106-2.46 1.02-2.46 3.15-2.46h0.535c4.92 0 8.07 3.21 8.07 7.91v0.588c0 3.9-1.02 8.44-4.54 10.8 0.268 0.267 1.5 1.71 1.71 2.08 2.4 3.15 1.82 10.8 2.08 14.5 0 0.321 0.32 2.78 0.32 3.1v0.428c0 0.908-0.854 1.02-1.55 1.02h-0.054c-0.588 0-1.28 0-1.5-0.748-0.054-1.76-0.534-9.94-0.642-11.8-0.214-2.62-0.748-6.2-4.01-6.2h-0.854c-0.107 0.48-0.321 2.62-0.321 3.1-0.053 0.48-0.32 12.3-0.374 16.9 0 1.02 0.16 2.14-1.18 2.14-0.588 0-1.23-0.213-1.6-0.748v-5zm4-21c3.79 0 5.24-7 5.24-9.46 0-2.51-1.18-5.72-4.22-5.72-0.802 0-1.34 0.48-1.34 1.39 0.053 4.65-0.374 8.55-0.374 13.3-1 1-1 1 0 1z"/>
	<path d="m575 207h0.214c9.62 0.428 11 11.7 11 19.5 0 0.802-0.054 1.6-0.054 2.3-0.267 10.2-3.15 18.3-12.2 18.3-0.748 0-1.5-0.053-2.3-0.214 0 0 0.054-5.98 0.106-8.44 0.161-6.84 0.428-13.3 0.695-20.3 0.053-0.908 0.16-8.71 0.214-9.72l0.053-0.321c0-1 1-1 2-1zm-1 38c0.428 0.053 0.534 0.053 0.588 0.053 6.79 0 7.91-11.4 8.12-15.8 0.268-5.02 0.054-18.4-7.48-19l-2 35z"/>
	<path d="m591 211c0-0.962 0.908-1.87 1.87-1.87h8.44c0.32 0 1.39 0.802 1.44 1.07 0.054 0.106 0.054 0.16 0.054 0.267 0 1.07-1.44 1.55-2.3 1.55h-6.41l0.267 17.7 5.77-0.855h0.267c2.51 0 1.55 2.46-0.587 2.78l-5.34 0.802-0.161 13.9c0.481 0.054 2.3 0.054 2.78 0.054 3.58 0 6.2-1.23 6.36 1.23 0.107 1.82-11.9 1.6-11.9 0.588v-38z"/>
	<path d="m610 239c2.14 0.642 0.107 5.34 2.78 6.89h0.32c2.99 0 3.85-4.12 3.85-6.31 0-2.94-0.214-6.09-1.44-8.87-2.51-5.77-7.91-10.6-7.91-17.2 0-2.99 1.82-7.96 5.5-7.96 2.35 0 6.25 1.87 6.25 4.65 0 1.02-0.32 1.6-1.39 1.6-2.08 0-1.44-3.21-4.38-3.21-2.72 0-2.94 3.79-2.94 5.66 0 5.4 4.54 9.19 6.95 13.7 2.19 4.12 3.31 10.1 2.03 14.2-0.855 2.78-3.26 6.57-6.52 6.57-3.95 0-5.18-4.92-5.18-8.12-1-3 0-4 1-4z"/>
	<path d="m627 209c0.374-1.07 0.642-1.12 1.76-1.12 1.55 0 1.55 0.694 1.55 2.24 0 0.16-0.054 0.855-0.054 0.962l-1.6 36.6c-0.107 2.35-3.1 2.56-3.1 1.02l1-40z"/>
	<path d="m633 228c0-6.68 0.801-20.4 9.78-20.8l0.428-0.053c2.08 0 5.93 1.34 5.93 3.37 0 0.214-0.054 0.428-0.16 0.694-1.07 2.56-2.89-1.18-5.98-1.6h-0.268c-4.92 0.641-6.68 7.21-6.68 16.1v1.18l0.106 5.82c0.214 3.58 1.34 12.1 6.15 12.1h0.214c3.53-0.213 4.06-7.43 4.22-9.94 0.214-1.82 0.481-3.69 0.374-5.66-0.16-3.37-6.09 0.267-6.25-2.56 0-1.23 1.5-1.5 2.4-1.5l0.962-0.054c1.28-0.053 5.88-0.16 5.88 2.03v1.02c-0.054 1.66-0.481 7.59-0.588 8.44-0.481 4.7-1.55 10.6-7.27 10.9h-0.428c-8.18 0-8.76-13-8.82-18.7v1z"/>
	<path d="m656 210c-0.107-2.14 2.83-3.42 3.95-0.32l10.9 29.6c0.054-2.35 0.481-15.5 0.802-20.7 0.16-3.21-0.054-6.47 0.642-9.46 0-0.588 0.588-0.588 1.39-0.588 1.28 0.054 1.39 0.107 1.34 1.28-0.16 5.56-0.961 11.1-1.18 16.7-0.107 3.1-0.642 17.9-0.642 21-0.374 1.12-2.03 0.481-2.46-0.428-0.534-1.12-0.962-2.19-12.3-32.5l-0.374 32.8c0 1.6-2.73 1.44-2.73 0.32v-39z"/>
	<path d="m681 211c0-0.962 0.908-1.87 1.87-1.87h8.44c0.32 0 1.39 0.802 1.44 1.07 0.054 0.106 0.054 0.16 0.054 0.267 0 1.07-1.44 1.55-2.3 1.55h-6.41l0.267 17.7 5.77-0.855h0.267c2.51 0 1.55 2.46-0.587 2.78l-5.34 0.802-0.16 13.9c0.48 0.054 2.3 0.054 2.78 0.054 3.58 0 6.2-1.23 6.36 1.23 0.107 1.82-11.9 1.6-11.9 0.588v-38z"/>
	<path d="m699 245c0-12 0.428-24.2 0.748-36.2 0.106-2.46 1.02-2.46 3.15-2.46h0.535c4.92 0 8.07 3.21 8.07 7.91v0.588c0 3.9-1.02 8.44-4.54 10.8 0.268 0.267 1.5 1.71 1.71 2.08 2.4 3.15 1.82 10.8 2.08 14.5 0 0.321 0.32 2.78 0.32 3.1v0.428c0 0.908-0.854 1.02-1.55 1.02h-0.054c-0.588 0-1.28 0-1.5-0.748-0.054-1.76-0.534-9.94-0.642-11.8-0.214-2.62-0.748-6.2-4.01-6.2h-0.854c-0.107 0.48-0.321 2.62-0.321 3.1-0.053 0.48-0.32 12.3-0.374 16.9 0 1.02 0.16 2.14-1.18 2.14-0.588 0-1.23-0.213-1.6-0.748v-5zm4-21c3.79 0 5.24-7 5.24-9.46 0-2.51-1.18-5.72-4.22-5.72-0.802 0-1.34 0.48-1.34 1.39 0.053 4.65-0.374 8.55-0.374 13.3-1 1-1 1 0 1z"/>
</g>
<path d="m563 229l-0.035-0.484c-0.341-0.928-0.822-1.06-1.29-1.06l-5.2 0.115c-0.236 0.043-0.482 0.02-0.704-0.087-0.447-0.213-0.647-0.661-0.599-1.15 0.109-1.05 0.254-2.13 0.254-3.2v-0.773c0-1.78-0.33-3.43-0.807-4.9-0.422-1.39-1.12-1.57-1.7-1.57l-0.675 0.07c-0.905 0.364-0.82 0.771-0.82 0.973v0.176 5.7 0.389l0.227 3.48c-0.028 0.587-0.285 1.13-0.867 1.18l-5.51 0.539c-0.964 0.404-0.85 0.958-0.85 1.5v0.27c0 0.184-0.133 0.257-0.133 0.257 0.352 0.904 0.594 1.25 0.729 1.25l5.12 0.017h0.067c0.33 0 0.669-0.217 0.891 0.022 0.24 0.261-0.765 0.437-0.813 0.786-0.471 3.39-1.86 5.94-1.86 7.93v0.268c0 0.441 1.15 1.1 2.66 1.33 0.752-0.018 1.77-0.302 2.05-0.954 0.147-3.68 0.713-6.85 1.12-9.43 0.089-0.561 0.712-0.982 1.28-0.993l6.31-0.142c3 0 4-1 4-1z" fill="#FCF3EA"/>
</svg>
