<?xml version="1.0" encoding="utf-8"?>
<!-- Generator: Adobe Illustrator 16.0.0, SVG Export Plug-In . SVG Version: 6.00 Build 0)  -->
<!DOCTYPE svg PUBLIC "-//W3C//DTD SVG 1.1//EN" "http://www.w3.org/Graphics/SVG/1.1/DTD/svg11.dtd">
<svg version="1.1" id="Layer_1" xmlns="http://www.w3.org/2000/svg" xmlns:xlink="http://www.w3.org/1999/xlink" x="0px" y="0px"
	 width="128px" height="128px" viewBox="0 0 128 128" enable-background="new 0 0 128 128" xml:space="preserve">
<g display="none">
	<path display="inline" d="M49.034,85.738c-3.403-1.193-5.985-3.201-7.422-6.613c-0.805-1.917-1.99-2.148-3.934-1.053
		c-5.285,2.984-10.732,5.67-16.076,8.547c-0.806,0.433-1.583,1.132-1.851,1.921C16.919,96.868,11,114.934,11,115.6
		c0,0.004,0,0.004,0,0.004l14.066-13.391c0.533-0.499,0.641-1.459,0.35-2.134c0,0-0.238-0.456-0.256-1.449
		c-0.053-2.92,2.142-5.344,5.02-5.513c2.904-0.167,5.585,2.33,5.679,5.279c0.09,2.836-2.22,5.276-5.129,5.422
		c-1.095,0.056-1.718-0.184-1.718-0.184c-0.682-0.261-1.679-0.07-2.211,0.434l-14.482,13.635c0.224-0.063,18.358-6.002,27.131-9.016
		c0.878-0.301,1.671-1.338,2.153-2.223c2.954-5.426,5.714-10.961,8.74-16.349C51.555,87.959,51.378,86.561,49.034,85.738z"/>
	<path display="inline" d="M106.048,11.193c-11.34,11.17-23.761,21.063-38.303,28.575c-6.393,3.302-12.014,8.287-17.546,13.016
		c-5.331,4.559-7.387,10.966-7.393,17.868c-0.004,8.041,4.604,13.224,12.617,13.968c7.693,0.714,14.368-1.843,19.746-7.513
		c8.388-8.844,14.33-19.386,20.476-29.758c5.063-8.542,10.823-16.477,18.18-23.161c0.846-0.769,1.693-1.535,2.541-2.302
		C114.105,16.556,110.436,13.06,106.048,11.193z"/>
</g>
<g display="none">
	<path display="inline" d="M114.632,5.499c1.698,0,3.397,0.031,5.097-0.007c2.127-0.047,3.138,0.955,3.117,3.081
		c-0.142,14.858-3.02,28.934-11.445,41.542c-6.817,10.202-15.652,18.458-24.907,26.322c-1.153,0.979-1.699,1.977-1.761,3.504
		c-0.309,7.711-0.78,15.416-1.078,23.129c-0.094,2.383-0.907,3.943-3.084,5.17c-8.334,4.699-16.588,9.539-24.803,14.447
		c-2.025,1.209-3.428,1.061-5.043-0.65c-5.312-5.622-4.916-3.415-2.698-10.875c1.319-4.436,2.669-8.859,4.112-13.252
		c0.445-1.357,0.191-2.203-0.833-3.208c-5.899-5.789-11.754-11.626-17.529-17.538c-1.164-1.191-2.153-1.314-3.651-0.828
		c-5.579,1.803-11.216,3.42-16.792,5.229c-1.717,0.557-2.901,0.209-4.122-1.055c-5.886-6.105-5.616-4.133-1.571-11.16
		c4.237-7.354,8.591-14.643,12.788-22.021c1.005-1.767,2.277-2.44,4.26-2.526c8.174-0.36,16.342-0.813,24.506-1.346
		c0.841-0.053,1.844-0.681,2.419-1.348c6.731-7.772,13.696-15.291,21.725-21.781c10.996-8.891,23.518-13.66,37.604-14.439
		c1.23-0.067,2.461-0.183,3.693-0.276C114.633,5.576,114.632,5.538,114.632,5.499z M99.693,35.623
		c3.795,0.011,6.938-3.095,6.986-6.903c0.049-3.794-3.031-6.967-6.832-7.038c-3.902-0.074-7.131,3.109-7.104,7.001
		C92.77,32.482,95.907,35.613,99.693,35.623z"/>
</g>
<g>
	<path fill="#FFFFFF" d="M64.051,33.031c9.641,0.033,17.477,3.854,23.742,11.071c2.42,2.788,4.475,5.834,6.344,9.005
		c2.963,5.035,6.647,9.422,11.463,12.78c0.996,0.695,2.096,1.338,3.248,1.684c1.479,0.449,3.061-0.529,3.674-1.965
		c0.623-1.47,0.187-3.269-1.18-4.086c-5.169-3.091-8.826-7.551-11.822-12.675c-2.205-3.77-4.748-7.305-7.746-10.5
		c-6.285-6.7-13.901-10.81-23.1-11.749c-9.383-0.961-18.246,0.687-26.21,5.906c-8.355,5.477-13.874,13.117-16.538,22.761
		c-0.702,2.549-0.761,5.202-0.467,7.808c0.564,4.974,1.309,9.925,1.943,14.894c0.303,2.369,0.631,4.747,0.76,7.13
		c0.141,2.613-0.77,4.995-2.101,7.219c-1.526,2.554-3.532,4.709-5.673,6.744c-1.035,0.987-1.481,2.147-1.087,3.553
		c0.64,2.293,3.494,3.369,5.262,1.793c4.725-4.215,8.68-8.988,10.069-15.41c0.513-2.373,0.482-4.764,0.16-7.143
		c-0.666-4.937-1.453-9.857-2.117-14.797c-0.416-3.07-0.785-6.166-0.292-9.259c0.536-3.359,2.015-6.371,3.792-9.227
		c5.14-8.252,12.437-13.376,22.095-14.956C60.179,33.301,62.125,33.218,64.051,33.031z"/>
	<path fill="#FFFFFF" d="M64.115,50.433c-6.262-0.027-11.717,3.795-14.391,9.971c-2.496,5.754-1.993,11.375,0.524,16.958
		c2.344,5.193,5.655,9.744,9.322,14.052c6.511,7.644,13.901,14.373,21.675,20.688c3.399,2.767,6.897,5.406,10.403,8.037
		c2.078,1.56,4.875,0.555,5.432-1.899c0.344-1.505-0.229-2.685-1.452-3.619c-3.536-2.713-7.112-5.382-10.562-8.202
		c-7.346-5.999-14.342-12.381-20.48-19.641c-3.293-3.896-6.332-7.973-8.311-12.726c-0.963-2.317-1.682-4.702-1.303-7.264
		c0.284-1.912,0.875-3.721,1.91-5.364c2.587-4.096,7.224-5.342,11.524-3.098c2.52,1.315,4.187,3.411,5.357,5.949
		c1.795,3.892,3.817,7.657,6.244,11.198c3.717,5.424,8.422,9.885,13.646,13.809c4.51,3.388,9.104,6.662,13.682,9.959
		c1.697,1.226,3.824,0.884,4.938-0.717c1.111-1.594,0.707-3.594-0.994-4.83c-4.317-3.137-8.633-6.277-12.963-9.403
		c-8.157-5.89-14.225-13.448-18.262-22.663c-2-4.559-5.189-7.993-9.838-9.96C68.266,50.841,66.229,50.445,64.115,50.433z"/>
	<path fill="#FFFFFF" d="M37.088,64.994c0.014,4.281,0.843,8.457,1.652,12.636c0.768,3.951,1.724,7.897,1.434,11.959
		c-0.284,3.953-1.246,7.749-3.203,11.236c-1.531,2.729-3.751,4.708-6.647,5.911c-0.673,0.279-1.357,0.533-2.041,0.791
		c-1.952,0.738-2.875,2.563-2.221,4.404c0.645,1.819,2.557,2.648,4.516,2.016c7.238-2.338,11.965-7.195,14.409-14.338
		c1.53-4.473,2.472-9.061,1.942-13.799c-0.369-3.297-0.986-6.568-1.565-9.836c-0.614-3.47-1.315-6.918-1.446-10.459
		c-0.284-7.602,3.097-13.232,9.332-17.261c8.095-5.227,17.952-4.144,25.212,2.65c3.114,2.917,5.565,6.34,7.231,10.238
		c2.396,5.595,6.103,10.154,10.55,14.189c3.519,3.191,7.28,6.055,11.293,8.592c1.22,0.771,2.479,0.828,3.711,0.086
		c1.126-0.676,1.683-1.728,1.626-3.039c-0.053-1.25-0.693-2.166-1.747-2.837c-4.044-2.579-7.851-5.474-11.315-8.798
		c-3.224-3.094-5.912-6.539-7.744-10.689c-2.537-5.743-6.154-10.745-11.188-14.606c-5.622-4.31-11.956-6.356-19.059-5.761
		C50.281,39.243,40.445,48.118,38,57.523C37.364,59.978,37.09,62.468,37.088,64.994z"/>
	<path fill="#FFFFFF" d="M63.67,14.354c-11.729-0.022-22.078,3.927-31.333,10.965c-4.701,3.572-8.833,7.717-12.324,12.494
		c-0.671,0.919-1.042,1.904-0.762,3.04c0.352,1.435,1.278,2.331,2.729,2.594c1.426,0.26,2.58-0.27,3.417-1.434
		c1.973-2.757,4.229-5.26,6.701-7.57c6.234-5.824,13.334-10.119,21.689-12.159c5.023-1.225,10.106-1.375,15.232-0.85
		c5.31,0.543,10.377,1.898,15.133,4.363c5.119,2.654,9.312,6.406,12.938,10.84c2.894,3.533,5.563,7.217,7.925,11.128
		c1.029,1.708,3.074,2.23,4.719,1.25c1.619-0.963,2.182-3,1.16-4.673c-4.095-6.712-8.681-13.051-14.56-18.337
		c-6.358-5.716-13.836-9.174-22.219-10.714C70.664,14.654,67.182,14.344,63.67,14.354z"/>
	<path fill="#FFFFFF" d="M64.412,2.434C49.768,2.642,36.622,6.972,25.156,16.17c-1.207,0.967-1.866,2.124-1.511,3.676
		c0.564,2.469,3.348,3.429,5.432,1.924c2.042-1.473,4.034-3.025,6.161-4.363c6.895-4.336,14.45-6.778,22.53-7.644
		c8.718-0.932,17.25-0.198,25.494,2.927c6.232,2.364,11.748,5.846,16.338,10.724c0.412,0.441,0.791,0.912,1.174,1.379
		c1.297,1.568,3.396,1.831,4.903,0.61c1.476-1.194,1.681-3.27,0.427-4.861c-2.293-2.91-5.041-5.35-8.025-7.523
		c-7.484-5.453-15.866-8.657-25.018-9.837C70.191,2.813,67.294,2.677,64.412,2.434z"/>
	<path fill="#FFFFFF" d="M60.648,67.544c0.167,0.548,0.283,1.12,0.508,1.64c2.027,4.684,4.863,8.866,7.967,12.879
		c7.438,9.615,16.328,17.742,25.924,25.135c2.117,1.626,4.268,3.21,6.451,4.748c2.242,1.578,5.167,0.234,5.409-2.459
		c0.12-1.342-0.493-2.348-1.56-3.157c-3.91-2.974-7.885-5.869-11.672-8.991c-7.883-6.496-15.088-13.664-21.055-22.005
		c-2.082-2.909-3.969-5.938-5.389-9.247c-0.651-1.521-2.287-2.289-3.869-1.924C61.805,64.521,60.728,65.896,60.648,67.544z"/>
	<path fill="#FFFFFF" d="M14.634,69.512c0.038,6.576,0.889,13.055,2.339,19.457c0.378,1.67,1.654,2.727,3.237,2.785
		c1.53,0.053,2.969-0.923,3.35-2.419c0.161-0.631,0.156-1.362,0.016-2.002c-1.336-6.146-2.175-12.351-2.102-18.647
		c0.058-4.903,0.577-9.749,2.179-14.425c0.196-0.57,0.434-1.126,0.663-1.685c0.724-1.771-0.002-3.687-1.689-4.458
		c-1.693-0.774-3.78-0.146-4.463,1.619c-0.914,2.359-1.697,4.79-2.287,7.25C14.894,61.091,14.646,65.295,14.634,69.512z"/>
	<path fill="#FFFFFF" d="M68.635,109.298c-4.231,0.149-7.384,2.179-9.724,5.611c-1.533,2.25-2.526,4.749-3.252,7.353
		c-0.5,1.799,0.552,3.598,2.286,4.119c1.824,0.549,3.593-0.42,4.282-2.244c0.627-1.664,1.269-3.334,2.061-4.925
		c0.671-1.351,1.724-2.416,3.222-2.921c0.885-0.295,1.776-0.29,2.549,0.217c1.424,0.936,2.873,1.861,4.162,2.967
		c1.291,1.111,2.398,2.439,3.586,3.67c1.045,1.086,2.535,1.398,3.877,0.806c1.309-0.578,2.147-1.877,2-3.326
		c-0.06-0.601-0.252-1.289-0.625-1.739c-2.789-3.379-5.884-6.426-9.852-8.431C71.777,109.73,70.268,109.275,68.635,109.298z"/>
	<path fill="#FFFFFF" d="M58.898,101.354c-0.125-3.112-0.748-6.063-2.253-8.791c-0.773-1.395-2.216-2.039-3.695-1.717
		c-1.525,0.332-2.589,1.467-2.685,3.049c-0.037,0.598,0.097,1.274,0.363,1.812c1.863,3.769,1.76,7.532,0.043,11.287
		c-1.71,3.748-4.574,6.524-7.782,8.987c-1.446,1.112-1.966,2.451-1.512,3.934c0.654,2.132,3.185,3.213,4.988,1.916
		c5.78-4.159,10.385-9.232,11.989-16.448C58.646,104.064,58.722,102.695,58.898,101.354z"/>
</g>
<g display="none">
	<path display="inline" d="M4.193,62.609L30.55,36.055c1.185-1.284,2.37-1.086,3.455,0l5.331,5.232c1.184,1.086,1.086,2.171,0,3.356
		l-19.841,19.84l19.841,19.842c1.086,1.185,1.086,2.171,0,3.356l-5.331,5.33c-1.085,0.987-2.271,1.186-3.455,0L4.193,66.458
		c-0.689-0.69-0.987-1.282-0.987-1.975C3.206,63.793,3.602,63.299,4.193,62.609z"/>
	<path display="inline" d="M66.38,32.007c0.396-1.481,1.185-2.369,3.06-2.369h8.688c1.975,0,2.566,0.987,2.073,2.863L61.248,96.962
		c-0.396,1.479-1.186,2.368-3.06,2.368h-8.687c-1.975,0-2.567-1.085-2.074-2.862L66.38,32.007z"/>
	<path display="inline" d="M123.434,66.458L97.078,93.014c-1.184,1.185-2.467,1.185-3.553,0l-5.133-5.332
		c-1.187-1.186-1.187-2.171,0-3.355l19.741-19.842l-19.741-19.84c-1.187-1.186-1.187-2.171,0-3.356l5.133-5.232
		c1.086-1.186,2.369-1.284,3.553,0l26.355,26.554c0.594,0.69,0.891,1.184,0.891,1.875S124.125,65.768,123.434,66.458z"/>
</g>
</svg>
